<?xml version="1.0" encoding="utf-8"?>
<!-- Generator: Adobe Illustrator 22.0.1, SVG Export Plug-In . SVG Version: 6.00 Build 0)  -->
<svg version="1.1" id="Layer_1" xmlns="http://www.w3.org/2000/svg" xmlns:xlink="http://www.w3.org/1999/xlink" x="0px" y="0px"
	 viewBox="0 0 763.2 334.7" style="enable-background:new 0 0 763.2 334.7;" xml:space="preserve">
<style type="text/css">
	.st0{display:none;}
	.st1{display:inline;}
	.st2{fill:#EBF1F5;}
	.st3{fill:#D8E3EA;}
	.st4{fill:#DFE9EE;}
	.st5{fill:#9FD1D8;}
	.st6{fill:#DFE7EC;}
	.st7{fill:#DBE6EC;}
	.st8{fill:#E5ECF1;}
	.st9{fill:#CAE3E9;}
	.st10{fill:#E8EEF3;}
	.st11{fill:#F0F4F7;}
	.st12{fill:#EFF3F6;}
	.st13{fill:#D6E6EC;}
	.st14{fill:#EEF3F6;}
	.st15{fill:#D8E6EC;}
	.st16{fill:#C0DCE3;}
	.st17{fill:#F1F4F7;}
	.st18{fill:#D8E4EB;}
	.st19{fill:#C8E2E8;}
	.st20{fill:#BFDCE3;}
	.st21{fill:#D7E8EC;}
	.st22{fill:#ACB5C0;}
	.st23{fill:#E2EAEF;}
	.st24{fill:#A8B0BC;}
	.st25{fill:#D6E7EC;}
	.st26{fill:#F1F5F7;}
	.st27{fill:#CED5DC;}
	.st28{fill:#C8CED6;}
	.st29{fill:#EAEEF2;}
	.st30{fill:#E2EAEE;}
	.st31{fill:#8892A0;}
	.st32{fill:#DCEAEE;}
	.st33{fill:#C6DFE6;}
	.st34{fill:#E2E7EC;}
	.st35{fill:#8D96A4;}
	.st36{fill:#ACB4BF;}
	.st37{fill:#8D96A2;}
	.st38{fill:#B8BFC7;}
	.st39{fill:#DDEAEE;}
	.st40{fill:#C7E0E6;}
	.st41{fill:#BFC6CF;}
	.st42{fill:#BBC2CB;}
	.st43{fill:#CAD1D9;}
	.st44{fill:#D9DFE5;}
	.st45{fill:#939CA9;}
	.st46{fill:#F1F5F8;}
	.st47{fill:#848D9B;}
	.st48{fill:#B0B7C1;}
	.st49{fill:#A0A7B1;}
	.st50{fill:#D8DFE5;}
	.st51{fill:#B7BEC7;}
	.st52{fill:#B3BAC3;}
	.st53{fill:#D0D7DE;}
	.st54{fill:#B8BFC8;}
	.st55{fill:#C2C8CF;}
	.st56{fill:#B9C2CA;}
	.st57{fill:#949CA8;}
	.st58{fill:#B6BDC5;}
	.st59{fill:#9CA4AF;}
	.st60{fill:#BCC3CB;}
	.st61{fill:#757E8F;}
	.st62{fill:#858E9B;}
	.st63{fill:#B4BCC6;}
	.st64{fill:#AEB4BD;}
	.st65{fill:#6A798C;}
	.st66{fill:#D5DCE3;}
	.st67{fill:#A1A9B4;}
	.st68{fill:#B1B8C2;}
	.st69{fill:#D0D6DD;}
	.st70{fill:#98A2B0;}
	.st71{fill:#B3BBC4;}
	.st72{fill:#6A788B;}
	.st73{fill:#C0C7CE;}
	.st74{fill:#CFE1E8;}
	.st75{fill:#CDD4DA;}
	.st76{fill:#CBD0D7;}
	.st77{fill:#F0F5FA;}
	.st78{fill:#BCC4CD;}
	.st79{fill:#C4CBD3;}
	.st80{fill:#B5BEC9;}
	.st81{fill:#7E8C9D;}
	.st82{fill:#A5ADB9;}
	.st83{fill:#BDC4CD;}
	.st84{fill:#B8C0C9;}
	.st85{fill:#B0B8C3;}
	.st86{fill:#B6BCC4;}
	.st87{fill:#CFD6DE;}
	.st88{fill:#E3EAEF;}
	.st89{fill:#BBC1C9;}
	.st90{fill:#E5ECF0;}
	.st91{fill:#DADFE3;}
	.st92{fill:#E4EBF0;}
	.st93{fill:#B3BBC6;}
	.st94{fill:#B6BDC6;}
	.st95{fill:#BEC4CC;}
	.st96{fill:#8891A0;}
	.st97{fill:#BBC3CD;}
	.st98{fill:#F2F7FB;}
	.st99{fill:#D4D9DF;}
	.st100{fill:#F4F8FC;}
	.st101{fill:#B9C0C8;}
	.st102{fill:#BCC4CC;}
	.st103{fill:#ABB4BD;}
	.st104{fill:#E4EAEF;}
	.st105{fill:#E1E9ED;}
	.st106{fill:#979FAC;}
	.st107{fill:#47B9C0;}
	.st108{fill:#47BAC0;}
	.st109{fill:#3CB8BF;}
	.st110{fill:#7CCCD4;}
	.st111{fill:#2EBCC4;}
	.st112{fill:#BEDCE3;}
	.st113{fill:#96D2DA;}
	.st114{fill:#D7E2E9;}
	.st115{fill:#DDE6EB;}
	.st116{fill:#73C3CC;}
	.st117{fill:#85C8D3;}
	.st118{fill:#B9D5DF;}
	.st119{fill:#7FCDD5;}
	.st120{fill:#DEE6EC;}
	.st121{fill:#38A7AE;}
	.st122{fill:#9BCED7;}
	.st123{fill:#46B9C0;}
	.st124{fill:#75C6CE;}
	.st125{fill:#BAD6E0;}
	.st126{fill:#87C8D3;}
	.st127{fill:#92D0D8;}
	.st128{fill:#4FC1C8;}
	.st129{fill:#4AC2CA;}
	.st130{fill:#98D2DA;}
	.st131{fill:#4DBCC2;}
	.st132{fill:#47BAC1;}
	.st133{fill:#EAF0F5;}
	.st134{fill:#E9EEF3;}
	.st135{fill:#EBF0F5;}
	.st136{fill:#959FAF;}
	.st137{fill:#A0A9B6;}
	.st138{fill:#949FAF;}
	.st139{fill:#99A3B0;}
	.st140{fill:#818B9A;}
	.st141{fill:#838D9A;}
	.st142{fill:#A9B2C0;}
	.st143{fill:#9CA6B4;}
	.st144{fill:#919AA8;}
	.st145{fill:#98A2B1;}
	.st146{fill:#A4AEB9;}
	.st147{fill:#9EA7B4;}
	.st148{fill:#9FA7B2;}
	.st149{fill:#848D9C;}
	.st150{fill:#5B6D84;}
	.st151{fill:#3A5164;}
	.st152{fill:#32395B;}
	.st153{fill:#4D5D74;}
	.st154{fill:#ABB3BE;}
	.st155{fill:#A7AFBB;}
	.st156{fill:#A6AFBC;}
	.st157{fill:#BFC5CE;}
	.st158{fill:#B2BAC4;}
	.st159{fill:#4C5C73;}
	.st160{fill:#E2E8ED;}
	.st161{fill:#97A2B1;}
	.st162{fill:#A3ACBA;}
	.st163{fill:#AEB6C1;}
	.st164{fill:#8C96A3;}
	.st165{fill:#636F80;}
	.st166{fill:#9EA6B3;}
	.st167{fill:#B0B7C2;}
	.st168{fill:#A6AFBB;}
	.st169{fill:#ECF1F6;}
	.st170{fill:#8B95A3;}
	.st171{fill:#808999;}
	.st172{fill:#98A0AC;}
	.st173{fill:#373C5E;}
	.st174{fill:#ADB5C0;}
	.st175{fill:#B5BBC4;}
	.st176{fill:#A1AAB9;}
	.st177{fill:#929CAB;}
	.st178{fill:#768190;}
	.st179{fill:#5E6E80;}
	.st180{fill:#808A98;}
	.st181{fill:#48C1C9;}
	.st182{fill:#7C8796;}
	.st183{fill:#778190;}
	.st184{fill:#9CA5B2;}
	.st185{fill:#6E7A8B;}
	.st186{fill:#798493;}
	.st187{fill:#E1E6EC;}
	.st188{fill:#A1AAB7;}
	.st189{fill:#9BA5B2;}
	.st190{fill:#7B8695;}
	.st191{fill:#E6EBEF;}
	.st192{fill:#959EAB;}
	.st193{fill:#516074;}
	.st194{fill:#627184;}
	.st195{fill:#707C8A;}
	.st196{fill:#979FA9;}
	.st197{fill:#4E6174;}
	.st198{fill:#969EAA;}
	.st199{fill:#7E8796;}
	.st200{fill:#828C9A;}
	.st201{fill:#59607A;}
	.st202{fill:#6E768A;}
	.st203{fill:#97A0AD;}
	.st204{fill:#5D6A7B;}
	.st205{fill:#B9BFC6;}
	.st206{fill:#DFE5EA;}
	.st207{fill:#666D83;}
	.st208{fill:#919AA7;}
	.st209{fill:#7F8A99;}
	.st210{fill:#7D8898;}
	.st211{fill:#798391;}
	.st212{fill:#9DA5AF;}
	.st213{fill:#A2ACB9;}
	.st214{fill:#7D8797;}
	.st215{fill:#9CA5B3;}
	.st216{fill:#556376;}
	.st217{fill:#34BAC1;}
	.st218{fill:#16B5BC;}
	.st219{fill:#1CB6BD;}
	.st220{fill:#0FB5BC;}
	.st221{fill:#3DB8BF;}
	.st222{fill:#1DB5BC;}
	.st223{fill:#1AB5BC;}
	.st224{fill:#4BBCC3;}
	.st225{fill:#09B4BC;}
	.st226{fill:#43BAC1;}
	.st227{fill:#0CB4BC;}
	.st228{fill:#20B6BD;}
	.st229{fill:#3DBCC6;}
	.st230{fill:#2EB6BE;}
	.st231{fill:#30BDC5;}
	.st232{fill:#08B4BC;}
	.st233{fill:#05A4AB;}
	.st234{fill:#3EB9C1;}
	.st235{fill:#27B7BE;}
	.st236{fill:#01B3BB;}
	.st237{fill:#3FBDC6;}
	.st238{fill:#29B5BD;}
	.st239{fill:#2CB5BD;}
	.st240{fill:#00B3BB;}
	.st241{fill:#2DB5BD;}
	.st242{fill:#1CB5BD;}
	.st243{fill:#32B9C1;}
	.st244{fill:#6C7C8E;}
	.st245{fill:#435B6F;}
	.st246{fill:#5F6E81;}
	.st247{fill:#758293;}
	.st248{fill:#ECF2F6;}
	.st249{fill:#969FAE;}
	.st250{fill:#D6DCE2;}
	.st251{fill:#EDF1F5;}
	.st252{fill:#C2C9D2;}
	.st253{fill:#97A1AE;}
	.st254{fill:#3F6179;}
	.st255{fill:#516176;}
	.st256{fill:#DEE4EA;}
	.st257{fill:#96A0AE;}
	.st258{fill:#C0C8D1;}
	.st259{fill:#B3BAC4;}
	.st260{fill:#9AA2AD;}
	.st261{fill:#02B3BB;}
	.st262{fill:#F1F5F9;}
	.st263{fill:#5F6D82;}
	.st264{fill:#DDE4E9;}
	.st265{display:inline;fill:#D8E3EA;}
	.st266{font-family:'ArialMT';}
	.st267{font-size:24px;}
	.st268{letter-spacing:18;}
	.st269{letter-spacing:9;}
	.st270{letter-spacing:3;}
	.st271{letter-spacing:24;}
	.st272{letter-spacing:6;}
	.st273{letter-spacing:-3;}
	.st274{letter-spacing:30;}
	.st275{fill:none;}
	.st276{font-size:25px;}
</style>
<g id="Layer_1_1_" class="st0">
	<g class="st1">
		<path class="st2" d="M377,335.2c-129.5,0-259,0-388.5,0.1c-3.7,0-4.6-0.8-4.6-4.6c0.1-123.7,0.1-247.3,0-371
			c0-3.7,0.8-4.6,4.6-4.6c259,0.1,518,0.1,777,0c3.7,0,4.6,0.8,4.6,4.6c-0.1,123.7-0.1,247.3,0,371c0,3.7-0.8,4.6-4.6,4.6
			C636,335.2,506.5,335.2,377,335.2z"/>
		<path class="st3" d="M428.8,282.2c-14.4,0-14.6-0.4-15-14.8c-0.2-5.8,2.3-11,2.3-16.7c0-9.3,1.4-18.6,0.1-28.1
			c-0.9-6.8-0.3-13.9,0.1-20.9c0.3-4.3,1.4-8.7,0-13.2c-1.3-3.9,0.2-7.9,0.6-11.8c0.7-6.2-1.1-12.2-1-18.4
			c0.2-7.6,1.5-15.2,0.8-22.6c-1.1-10.7,0.3-21.3-0.3-32c-0.4-5.6-0.7-11.7,0.2-17.6c0.9-5.7-0.6-11.7-0.6-17.6
			c-0.1-16.5-0.1-33,0-49.5c0-6.3,1.6-7.9,8-7.9c3.3,0,6.7,0,10,0c6,0.1,8.8,3,7.8,8.8c-0.9,5-0.1,9.7,0,14.6
			c0.2,6.2-0.8,12.4-0.4,18.6c1,14.1-0.9,28.3,0.4,42.4c0.6,7.3-0.4,14.7-0.5,22.1c0,6,0.1,12,0.6,17.9c0.5,5.5-1,10.7-0.6,16.3
			c1.1,14.3,0.2,28.6,0.2,42.9c0.1,11.8,0.6,23.6-0.1,35.4c-0.7,12.5,1.1,25.2,1.4,37.9C443.2,282.2,443,282.2,428.8,282.2z"/>
		<path class="st3" d="M709,127.7c0-36,0-72,0-108c0-7.1,1.4-8.5,8.4-8.5c3.5,0,7-0.1,10.5,0c4.8,0.2,6.8,2.3,7.1,7.2
			c0.1,1.3,0,2.7,0,4c0,70.7-0.2,141.3,0.2,212c0.1,12.9,0.8,25.9,0.8,38.9c0,7.6-1.4,8.9-9.1,9c-3.7,0-7.3,0.1-11,0
			c-6.1-0.1-8.1-2-7.9-8.2C709.3,225.3,708.9,176.5,709,127.7z"/>
		<path class="st3" d="M391,66.2c2,2.1,2,4.7,2,7.5c0,46.6-0.6,93.3,0.2,139.9c0.3,20.1,0.5,40.2,0.7,60.3c0.1,6.7-1.5,8.3-8.1,8.3
			c-4.3,0-8.7,0.1-13,0c-4.9-0.2-6.8-2.3-6.8-7.2c0-16.3-0.5-32.7,0.1-49c2-52.9,0.3-105.9,0.9-158.8c0.5-0.8,1-1.6,1.9-2
			c6.3-0.9,12.6-0.3,18.9-0.4C389.1,64.9,390.1,65.4,391,66.2z"/>
		<path class="st3" d="M589,278.2c-1.1,3.1-3.5,4.1-6.6,4c-4.6-0.1-9.2-0.1-13.8,0c-3.1,0.1-5.5-0.9-6.6-4c0.2-0.2,0.3-0.3,0.5-0.5
			c0.5-0.2,0.9-0.2,1.4-0.1s0.9,0.3,1.4,0.6c0.7,0.4,1.3,0.8,2.1,1.1c4.5,0.9,9,0.4,13.4,0.4c3.6-0.1,5.4-2.2,5.7-5.7
			c0.1-1.2,0-2.3,0-3.5c0-36.7,0-73.5,0-110.2c0-7.1-0.5-7.6-7.6-7.6c-5,0-10-0.1-14.9,0.2c-0.7-0.2-1.2-0.5-1.5-1.1
			c-0.7-1.9-0.4-4-0.4-5.9c0-40.5,0-81,0-121.5c0-0.7,0-1.3,0-2c0.2-10,1.4-11.2,11.1-11.2c2.2,0,4.3,0,6.5,0c7.7,0,8.4,0.7,8.4,8.2
			c0,20.2,0,40.3,0,60.5c0,21.3,0,42.7,0,64c0,2.8-0.1,5.7,1,8.4l0,0c0.8,1.2,0.5,2.6,0.5,3.9c0,39.4,0,78.8,0,118.2
			C589.5,275.6,589.8,277,589,278.2z"/>
		<path class="st3" d="M294,66.2c0.4,1.2,1.3,2,1.3,3.6c-0.2,39-0.3,78.1-0.4,117.1c0,1.8,0,3.7,1,5.3c0.3,0.5,0.2,1-0.3,1.3
			c-0.5,0.1-1,0-1.5-0.2c-2.1-2.2-4.7-2.8-7.7-2.7c-5.9,0.2-11.9-0.8-17.3,2.7c-0.5-0.4-0.8-0.8-1-1.4c0.7-39.4,0.1-78.7,0.3-118.1
			c0-2.8-0.4-5.7,2-7.9c6.9-2.1,14-0.7,21-0.9C292.5,65,293.4,65.4,294,66.2z"/>
		<path class="st3" d="M344,65.2c-1.6,2.9,0.1,5.8,0.1,8.8c-0.2,26.3-0.9,52.7,0.1,79c1.4,39.8,0.4,79.6,0.8,119.4
			c0.1,8.7-1.1,9.9-9.6,9.9c-3.8,0-7.7,0.1-11.5,0c-4.9-0.2-6.8-2.3-6.8-7.2c0-36.2-0.7-72.3,0.3-108.5c0.4-13.6,0.8-27.4,1.2-41.1
			c0.4-14.5-0.3-29.1-0.5-43.7c-0.1-4.9,0.6-9.7,1.2-14.5c0.1-0.6-0.8-1.3-1.2-1.9c0.4-0.5,0.9-0.9,1.5-1.1c7.7-0.6,15.4-0.6,23.1,0
			C343.2,64.4,343.7,64.7,344,65.2z"/>
		<path class="st3" d="M465,116.2c0-32.1,0-64.3,0-96.4c0-7.1,1.4-8.5,8.4-8.6c3.7,0,7.3-0.1,11,0c4.8,0.3,6.7,2.8,6,7.5
			c-0.3,1.8-0.3,3.6-0.3,5.5c0,30.6,0,61.3,0,91.9C481.7,115.4,473.3,115.4,465,116.2z"/>
		<path class="st3" d="M123,160.2c0-29,0.1-58.1-0.1-87.1c0-2.6,1-5.2,0-7.8c0.4-0.5,0.9-1.1,1.6-1.1c7.7-0.4,15.3-1.1,23,0.4
			c0.6,0.4,0.8,1,0.5,1.7c1.3,3.6,1,7.3,1,11c0,24.7,0,49.5,0.1,74.2c0,3.3-1.3,6.5-0.1,9.8c0.4,0.5,0.3,0.9-0.1,1.3
			c-0.5,0.2-1,0.3-1.5,0.3c-0.5-0.1-1-0.3-1.4-0.6c-7.2-2.9-14.5-1.8-21.8-0.4C123.4,161.6,122.7,161.2,123,160.2z"/>
		<path class="st3" d="M170.9,133.2c0-0.3,0.1-0.7,0.1-1c1.3-2.3,1-4.8,1-7.3c0-17.5,0-35.1,0-52.6c0-2.1-0.6-4.4,1.7-5.8
			c7.4-0.7,14.9-2,22.2,0.8c1.2,1,1,2.4,1,3.7c-1.5,38.9,2.9,77.7,2.1,116.6c-0.5,28.6-0.2,57.3,0,85.9c0,3.5-0.9,6.2-4,7.9
			c-7,0.8-14,0.8-21.1,0c-1.2-0.1-1.9-0.7-2-1.9c-0.5-0.5-0.5-0.9,0.1-1.4c0.5-0.2,1.1-0.2,1.6-0.1c6.4,1.6,12.8,0.6,19.3,0.6
			c1.2,0,1.6-1,2.1-1.9c0.7-1.9,0.5-4,0.5-5.9c0-43.3,0-86.5,0-129.8c0-8-1.2-9.2-9.3-9.2c-4.3,0-8.7-0.6-12.6,1.8
			c-0.6,0.2-1.2,0.3-1.8,0.2C171.5,133.5,171.2,133.4,170.9,133.2z"/>
		<path class="st3" d="M514,86.2c0-22.6,0-45.3,0-67.9c0-5.8,1.2-7,7-7c3.8-0.1,7.7,0.3,11.5-0.1c4.8-0.4,6.7,2.2,7.3,6.2
			c0.3,1.9,0.3,4,0.2,6c-0.6,11.1-0.2,22.3-0.5,33.4c-0.2,7.5-0.2,15.1,0.5,22.6c0.2,2,0.1,4-1,5.8c-1.7,0.7-2.7-0.6-3.9-1.3
			c-5.6-2.1-11.3-1.8-17-0.3c-0.2,0.4-0.5,0.7-0.7,1.1C516.5,85.7,515.6,86.9,514,86.2z"/>
		<path class="st4" d="M660,202.2c0-61,0-122,0-183c0-7.2,1.9-8.8,9.2-9.1c18-0.7,17.9,2,17.9,17.7c-0.1,53.2,0,106.3,0,159.5
			c0,5,0.2,10-1,14.9c-0.7,0.1-1.3-0.1-1.7-0.6c-2.5-3.3-2-7.3-2-11.1c0-54.6,0-109.3,0-163.9c0-1.8,0-3.7,0-5.5c0-1,0.1-2-0.2-3
			c-2.1-6.7-7.7-3.4-11.8-3.9c-3.1-0.4-6.2,0.1-6.3,4.4c0,2.2-0.1,4.3-0.1,6.5c0,55.1,0,110.3,0,165.4c0,3.8,0.5,7.7-2,11.1
			C661.3,202.1,660.7,202.3,660,202.2z"/>
		<path class="st5" d="M220,95.2c0-0.3,0-0.6,0-0.9c0.2-0.4,0.4-0.9,0.7-1.3c5.8-6.4,13.3-2.6,20-3.1c3.9-0.3,5.7,2.7,6.2,6.4
			c0,60.3,0,120.6,0,180.9c-0.6,1.7-1.2,3.3-3,4l0,0c-7,2.1-14,0.3-21,0l0,0c-1.2-0.8-2.3-1.7-3-3l0,0c-0.9-1.5-0.5-3.3-0.5-4.9
			c0-57.7,0-115.5,0-173.2C219.5,98.5,219.1,96.8,220,95.2z"/>
		<path class="st6" d="M73,258.2c0-61.5,0-123,0-184.6c0-2.7,0-5.3,2-7.4c0.4-0.5,0.9-0.8,1.5-1.1c7.2-0.6,14.5-0.7,21.7,0.1
			c0.9,0.4,1.4,1.2,1.8,2c0,63.3,0,126.7,0,190c-1.1,0.2-1.7-0.5-2.2-1.3c-0.7-1.4-0.7-2.8-0.7-4.4c0.4-58.1,0.1-116.3,0.2-174.4
			c0-7.4-0.8-8.1-7.8-8.2C77.8,68.7,76.6,70,77.2,82.3c0.5,10,0.6,20,0.5,30c-0.1,23.8-0.1,47.6-0.1,71.4c0,21.6,0.5,43.3-0.4,64.9
			c-0.1,1.7,0.6,3.3,0.1,5C76.3,255.4,76,258.1,73,258.2z"/>
		<path class="st7" d="M611,169.2c0-49.5,0-99,0-148.5c0-8.2,1.4-9.5,9.6-9.5c3.3,0,6.7,0,10,0c4.3,0,6.4,2.2,6.4,6.5
			c0,1.2,0,2.3,0,3.5c0,49,0,98,0,147c-0.2,0.1-0.5,0.2-0.7,0.3c-0.5,0-1-0.1-1.5-0.4c-6.7-1-13.3-0.7-20-0.2
			c-0.4,0.3-0.8,0.5-1.2,0.8C612.8,169.2,612,169.8,611,169.2z"/>
		<path class="st8" d="M589,152.2c-2-2.5-2-5.5-2-8.5c0-41.6,0-83.2,0-124.8c0-6.1-0.4-6.6-6.4-6.7c-4.2,0-8.3,0-12.5,0
			c-2.6,0-3.7,1.1-4.2,3.8c-0.7,4.6-0.9,9.2-0.9,13.9c0,40.8,0,81.6,0,122.3c-0.3,0.9-0.8,1.6-2,1c0-44.1,0-88.3,0-132.4
			c0-7.8,2-11.8,10.7-10.7c2.8,0.4,5.7,0.1,8.5,0.1c7.5,0,8.8,1.3,8.8,8.6c0,15.8,0,31.6,0,47.5C589,94.9,589,123.6,589,152.2z"/>
		<path class="st9" d="M465,116.2c5.2-3.8,11.1-1.4,16.7-2c2.9-0.3,5.9-0.3,8.3,2c0.7,1.2,1.2,2.5,1.1,4c0.7,1.4,0.4,2.9,0.4,4.4
			c0,48.7,0,97.5,0,146.2c0,1.5,0.3,3-0.4,4.4c0.4,3.3-1.3,5.4-4.1,6.9c-6.3-1.4-12.7,0.4-19-0.9c-4-0.7-4-3.8-4-6.9
			c0-31.5,0-63,0-94.5c0-19.3,0-38.7,0-58C464,120,463.3,117.9,465,116.2z"/>
		<path class="st10" d="M271,66.2c-1.3,2.1-1,4.5-1,6.8c0,31.5,0,62.9,0,94.4c0,8.6,0.6,17.3-1,25.8c0.1,0.3,0.1,0.6,0.2,0.9
			c0.5,22.5,0.1,44.9,0.2,67.4c0,4.5-0.1,9,0.1,13.5c0.1,0.6,0.2,1.2,0.3,1.8c0.1,0.9-0.1,1.8-0.8,2.4c-2.3-1.1-2-3.2-2-5.2
			c0-67.2,0-134.3,0-201.5c0-1.9,0-3.7,1-5.3c0.1-0.6,0.5-1,1-1.3c0.3-0.2,0.7-0.2,1.1-0.2C270.4,65.7,270.8,65.9,271,66.2z"/>
		<path class="st11" d="M541,88.2c4.1,3.2,1.7,7.6,1.9,11.4c0.4,9,0.5,18,0,27c-1,18.5,1.7,37.1-0.9,55.6c-0.5,3.6,1.3,6.9,1,10.4
			c-1.5,15.1,0.8,30.1,0,45.2c-0.6,11.9,0.2,23.7,0,35.5c0,1.8,1,4.2-2,4.9c-1.7-1.5-1.4-3.6-1.4-5.6c0-59.6,0-119.2,0-178.8
			C539.6,91.8,539.3,89.7,541,88.2z"/>
		<path class="st12" d="M170,278.2c-2.4-0.4-2-2.3-2-3.9c0-45.7,0-91.4,0-137.1c0-2.1-0.1-4.2,2.9-4h0.1c0.4,0.6,0.5,1.2,0.5,1.9
			c-0.1,45.2,0,90.3-0.1,135.5C171.4,273.2,172,275.9,170,278.2z"/>
		<path class="st13" d="M149,162.2c0-0.4,0-0.7,0-1.1c0.3,0,0.7,0,1,0c2,2.8,0.4,5.8,0.4,8.8c0.2,12.8,0.7,25.5,0.5,38.3
			c-0.2,19.7,0.1,39.4,0,59.2c0,3.6-0.2,7.3-1,10.8c-1.4,2.5-3.6,3.9-6.5,4c-5.3,0.1-10.6,0.1-15.9,0c-4.2-0.1-5.6-2.7-5.6-6.6
			c0.1-8.8,0-17.6,0-26.4c0-27.7,0-55.5,0-83.2c0-1.9-0.6-4,1-5.7c0.3,0.3,0.6,0.7,0.9,1c1.1,1.9,0.6,3.9,0.6,5.9
			c0,34.3,0,68.6,0,103c0,8.6,1.1,9.9,9.8,9.7c3.9-0.1,8.1,1.2,11.5-1.9c0.4-0.5,0.8-1,1.1-1.5c1.1-2.2,0.7-4.6,0.7-6.9
			c0-33.2,0-66.4,0-99.6C147.6,167.3,147,164.5,149,162.2z"/>
		<path class="st14" d="M561,278.2c-2.4-0.4-2-2.3-2-3.9c0-38.4,0-76.8,0-115.2c0-1.6-0.4-3.5,2-3.9c1.7,1.5,1.4,3.6,1.4,5.6
			c0,37.3,0,74.5,0,111.8C562.4,274.6,562.5,276.6,561,278.2z"/>
		<path class="st15" d="M541,88.2c0,63.3,0,126.7,0,190c-0.6,0.8-1.1,1.7-1.9,2.2c-2.9,2.3-21.4,2.6-24.5,0.6
			c-1.1-0.7-1.6-1.6-1.6-2.8c0.4-0.4,0.9-0.5,1.5-0.5c6.1,3.5,12.7,1.9,19.2,2c1.6,0,2.7-1,3.6-2.3c0.4-0.4,0.7-0.9,0.9-1.5
			c0.5-1.5,0.4-3,0.4-4.5c0-60.5,0.1-121,0-181.5c-0.1-0.6,0-1.3,0.1-1.9c0.2-0.3,0.4-0.5,0.5-0.8C539.7,87.5,540.4,87.9,541,88.2z"
			/>
		<path class="st16" d="M514.1,278.1c-0.4,0-0.7,0-1.1,0c0-62.4,0-124.9,0-187.3c0-1.6-0.5-3.4,1-4.7c1-0.7,2-1.3,3-2
			c6.5-2,12.9-2.9,19.2,0.5c-1.3,2.5-3.6,1.8-5.7,1.9c-4.1,0.4-8.3-0.6-12.3,0.7c-0.8,0.5-1.4,1.1-1.9,1.8c-1.2,2.5-0.8,5.2-0.8,7.9
			c0,57.6,0,115.3,0,172.9C515.4,272.7,516.2,275.7,514.1,278.1z"/>
		<path class="st3" d="M660,202.2c0.3,0,0.6,0,1,0c0.2,0.2,0.4,0.4,0.6,0.6c0.7,1.1,0.7,2.3,0.8,3.5c0.1,21.8,0,43.5,0,65.3
			c0,6.4,0.8,7.3,7.2,7.2c4.6-0.1,9.3,0.7,13.9-0.8c0.6-0.2,1.2-0.2,1.8-0.1c0.3,0.2,0.5,0.3,0.8,0.5c-0.6,3-2.6,3.9-5.5,3.9
			c-4.8-0.1-9.7,0.1-14.5,0s-7-2.3-7.1-7.1c-0.1-22.5-0.1-45,0-67.5C659,205.8,659.7,204,660,202.2z"/>
		<path class="st17" d="M150,278.2c0-39,0-78,0-117c2.1,1,2.1,2.7,1.7,4.6c-1.1,4.7,0,9.5-0.1,14.2c-0.4,11.9,1.3,23.7,0.2,35.6
			c-0.5,6-0.1,12.1-0.1,18.1c0.1,14.4,1.3,28.8-0.9,43.2C150.8,277.4,150.3,277.8,150,278.2z"/>
		<path class="st18" d="M220,95.2c0,61,0,122,0,183c-1.6-1.5-1-3.4-1-5.2c0-57.5,0-115.1,0-172.6C219,98.6,218.4,96.7,220,95.2z"/>
		<path class="st19" d="M611,169.2c0.7-0.3,1.3-0.7,2-1c0.8,0.7,1.1,1.6,1.1,2.6c-0.3,2.5-0.7,4.9-0.7,7.4c0,30.8,0,61.5,0,92.3
			c0,7.5,0.5,8,7.8,8c3.7,0,7.3-0.2,11,0.2c1.7,0.4,3.1-1,4.8-0.6c0.5,0.7,0.6,1.5-0.1,2.2c-7.4,3.7-15.2,1.9-22.9,1.4
			c-1.6-0.1-3-1.4-3.1-3.4c-0.7-1.2-0.4-2.6-0.5-3.9c0-33.1,0-66.2,0-99.2c0-1.3-0.3-2.7,0.4-3.9C611,170.5,611,169.9,611,169.2z"/>
		<path class="st3" d="M491.1,275.2c0-51.7,0-103.4,0-155.1c1.5,1.5,0.9,3.5,0.9,5.2c0,48.2,0,96.4,0,144.6
			C492,271.8,492.5,273.7,491.1,275.2z"/>
		<path class="st9" d="M99,256.2c0.3,0.3,0.7,0.7,1,1c0,1,0.1,2,0.1,3c0.7,5.7,0.7,11.4,0,17.1c-0.3,2.5-2.2,3.7-4.1,5
			c-4.9-1.1-9.8-0.2-14.7-0.5c-1.8-0.1-3.6,0.4-5.3-0.4c-3-0.8-3-3.2-3-5.6c0-5.8,0-11.6,0-17.5c1-1.3,2-2.7,3-4
			c6.3-2.7,12.9-1.2,19.4-1.1C97.1,253.1,98.1,254.8,99,256.2z"/>
		<path class="st20" d="M171,134.2c0-0.3,0-0.7,0-1c0.3,0,0.7,0,1,0c1.7,1.6,1.4,3.7,1.4,5.6c0,44.6,0,89.1,0,133.7
			c0,2,0.1,4-1.4,5.6c0,0.4,0,0.8,0,1.1c-0.3-0.4-0.7-0.7-1-1.1c-0.8-1.4-0.5-2.9-0.5-4.4c0-45.1,0-90.2,0-135.2
			C170.5,137.1,170.2,135.6,171,134.2z"/>
		<path class="st21" d="M171,134.2c0,48,0,96,0,144c-0.3,0-0.7,0-1,0c0-46.1,0-92.2,0-138.3C170,138,169.3,135.9,171,134.2z"/>
		<path class="st22" d="M49.1,278.4c0,5.1-2.2,7.9-6.2,7.8c-4.1,0-6.8-3.2-6.8-8.1c0.1-5.4,2.2-8.1,6.6-8
			C47,270.2,49.1,273,49.1,278.4z"/>
		<path class="st23" d="M172,66.2c0.7,0,1.3,0,2,0c0.3,0.2,0.5,0.4,0.3,0.7c-0.1,0.2-0.2,0.3-0.3,0.3c-1.6,1.5-1,3.4-1,5.2
			c0,17.6,0,35.3,0,52.9c0,2.5,0.2,5-2,6.9c-0.1-20.8-0.1-41.6-0.3-62.4C170.6,68.2,171.6,67.4,172,66.2z"/>
		<path class="st24" d="M25.9,173.1c0-0.3,0.1-0.6,0.1-0.9c2.4-2.1,5-2.8,7.9-1.1c0.1,2.6-3.2,0.9-3.6,3c-1.2,2.4-1.3,4.9-0.7,7.4
			c0.3,0.3,0.5,0.5,0.9,0.7c3.9-1.2,1.7-3.8,1.5-6c-0.3-0.6-0.6-1.2-0.6-1.9c0-0.5,0.1-0.9,0.4-1.3c0.7-0.5,1.8-0.2,2.3-1.1
			c0.4-0.2,0.8-0.1,1.2,0.2c0.4,1.7,2.3,2,2.9,3.4c0.1,1-0.6,1.8-0.4,3.1c-0.1-1.4,0.8-2.5,0.1-3.6c-0.2-1.5,0.8-2,2-2.3
			c0.8,0.1,1.3,0.5,1.6,1.2c0.1,0.5,0.2,0.9,0.2,1.4c0,1.9-1.3,3.9,0.7,5.5c0.9,0.1,1.6-0.2,2.3-0.6c1.6-1.1,0.5-2.1-0.2-3.1
			c-0.2-0.7-0.1-1.4,0.3-2.1c0.7-0.8,1.6-1.3,2.7-1.1c3,3.8,2.7,7-1.1,11.7c-2,0.2-4,0.1-6-0.3c-2.3-1.3-4.7-2.5-6.2,1
			c-5.3,1.8-7.1,1.3-9.6-2.9c-0.2-2.6-0.2-5.2,0-7.8C24.8,174.6,25.4,173.9,25.9,173.1z"/>
		<path class="st25" d="M561,278.2c0-41,0-82,0-123c0-0.7,0-1.3,0-2c0.7-0.3,1.3-0.7,2-1c0.3,0,0.6,0,0.9,0c0.8,1.2,0.2,2.4-0.1,3.6
			c-0.4,2.3-0.3,4.6-0.3,7c0,35.9,0,71.8,0,107.8c0,2.6,0.6,5.4-1.4,7.6l0,0C561.7,278.2,561.3,278.2,561,278.2z"/>
		<path class="st26" d="M297,192.2c4.1,4.4,2.3,10,1.6,14.6c-1.1,7.5,0.2,14.8-0.3,22.2c-0.2,3.2-0.3,6.5-0.3,9.8
			c-0.3,9.1,1.8,18.2,1.1,27.3c-0.3,4.1-0.6,8.2-2,12.1c-1.7-1.8-1.4-4-1.4-6.1c0-24.4,0-48.8,0-73.2
			C295.5,196.5,295.6,194.2,297,192.2z"/>
		<path class="st8" d="M589,278.2c0-42,0-84,0-126c1.6,1.5,1,3.4,1,5.2c0,38.5,0,77.1,0,115.6C590,274.8,590.6,276.7,589,278.2z"/>
		<path class="st11" d="M688,204.2c2.3,1.1,2.2,3.2,2,5.2c-1.4,10.2,0.2,20.5-0.7,30.8c-0.9,10.7,0.4,21.6,0.7,32.4
			c0.1,2.1,0.5,4.4-2,5.7c-1.7-1.8-1.4-4-1.4-6.1c0-20.6,0-41.2,0-61.7C686.6,208.2,686.3,206,688,204.2z"/>
		<path class="st3" d="M637,280.2c0-0.7,0-1.3,0-2c-2.1-2.2-1.4-5-1.4-7.6c-0.1-31.4-0.1-62.7,0-94.1c0-2.7-1.1-5.6,0.4-8.3
			c0.4,0,0.7,0,1.1,0c1.5,1.5,1,3.4,1,5.2c0,33.9,0,67.8,0,101.6C638,276.8,638.6,278.7,637,280.2z"/>
		<path class="st27" d="M433.9,311.1c-1.9,3.7-9.8,4.5-12,1.3c-1.5-2.1-0.9-3.1,3-4.5c-1.9-2.5-5.2-4.6-2.6-8.6
			c2.7-4.1,6.5-3.3,10.3-2.8c0.5,0.1,0.9,0.4,1.3,0.7c0.8,0.5,1.4,1.8,1,2C429.5,302.9,440.2,307.7,433.9,311.1c-1.4-1.1-1-3-2-4.2
			c-5.5-4.1-5.5-4.1-2.1-8.2c-2.2,0.5-4.3,0.7-5,3c-0.6,2,1.1,2.8,2.5,3.7c3.5,2.4,2.4,4.3-0.8,5.9
			C429.2,312.7,431.5,310.1,433.9,311.1z"/>
		<path class="st3" d="M611,171.2c0,35.7,0,71.4,0,107c-1.5-1.5-0.9-3.4-0.9-5.2c0-32.2,0-64.4,0-96.6
			C610,174.6,609.5,172.7,611,171.2z"/>
		<path class="st28" d="M19,73.2c2.6,3.6,4.4,3.1,6.2-0.9c2.1-4.5,8.2-4.5,10.9-0.2c-0.3,0.3-0.7,0.6-1.1,0.7
			c-2.2-0.1-4.6-1.3-6.7,0.6c-0.2,0.4-0.4,0.8-0.6,1.2c-0.7,2.8,0.2,5.7-0.7,8.5c-0.2,0.5-0.5,0.8-0.9,1.1c-0.8-0.2-1.6-0.8-2.3,0
			c-4,4.4-7.4-0.9-11.2-0.8c-1.1,0-1.7-2.6-0.9-4.3c0.8-1.6,1.5-3.3,2.3-4.9c0.2,0.2,0.4,0.3,0.6,0.5c0.7,1.1,0.6,2.3,0.4,3.5
			c-1.4,3,0.1,4,2.9,4c0.4,0,0.9,0.1,1.3,0.2c0.7,0,1.7,0.3,1.7-0.9c0-0.9-0.8-1.2-1.6-1.1c-1.9,0.5-3-0.3-3.6-2
			c-0.1-0.5-0.1-0.9,0-1.4C16.3,75.3,16.4,73.1,19,73.2z"/>
		<path class="st29" d="M52-24.8c0,18.7,0,37.3,0,56c-0.7,0.3-1.3,0.7-2,1c-1.9-1.5-0.9-3.9-1.9-5.7c-0.6-0.9-1.2-1.8-1.8-2.7
			c-0.3-0.3-0.5-0.7-0.8-1.1c-1.8-1.8-3.6-0.8-5.4,0c-1.4,0.7-2.8,1.8-4.5,0.5c-0.3-0.7-0.3-1.4,0.2-2c1.6-0.8,2.8-2.4,4.9-2
			c3.7,0.6,6.7-0.2,8.2-4c0.2,0.1,0.3,0.3,0.5,0.4c0.4,0.6,0.4,1.2,0.5,1.8c0,0.7,0,1.2,0,0.5l0.1-0.1c1.1-13.9-0.3-27.8,1-41.6
			C51.3-24.1,51.7-24.5,52-24.8z"/>
		<path class="st30" d="M331,296.3c1.5,0,3-0.1,4.5,0c1.6,0.2,3.6,2.1,3.1,2.5c-2.9,3,0.7,8.7-4.5,10.5c-1.5,0.5-1.8,1.7-2.2,3
			c-1,3-3.6,1.7-5.5,1.7c-2.4,0.1-2.4-1.8-2.4-3.5c0-2.5,0-5,0-7.5C324,296.2,324,296.2,331,296.3z"/>
		<path class="st31" d="M568.1,312.1c-0.6-2.3-2.3-4.3-2.1-6.9c0.2-2.5-3.4-5.9,1.7-7.3c1.1,0.8,0.2,1.6,0,2.5
			c-0.2,0.7-0.1,1.4-0.1,2.2c0.1-0.7,0-1.5,0.2-2.2c0.3-0.4,0.7-0.5,1.1-0.5c1.2,2.2,3,1.9,4.9,1c1.3,0.4,2.3-0.1,3.3-0.9
			c0.4-0.1,0.8,0,1.1,0.3l0,0c0.8,1.5,0,3.7,3.2,3.9c2.4,0.1,2.2,2.7,1.5,4.7c-1.8,1.3-3.8,1.2-5.9,0.6c-0.8-0.8-0.9-2.5-2.2-2.4
			c-1.6,0.2-0.8,1.8-1.1,2.9C572.7,312.9,571,314.1,568.1,312.1z"/>
		<path class="st32" d="M297,192.2c0,28.7,0,57.3,0,86c-0.3,0-0.7,0-1,0c-1.7-1.6-1.4-3.6-1.4-5.6c0-24.6,0-49.2,0-73.7
			c0-2-0.1-4,1.4-5.6c0-0.3,0-0.7,0-1C296.3,192.2,296.7,192.2,297,192.2z"/>
		<path class="st33" d="M296,193.2c0,28.3,0,56.6,0,85c-0.3,0-0.6,0.1-0.9,0.1c-0.2-0.2-0.5-0.5-0.7-0.7c-1.1-2-0.8-4.2-0.8-6.4
			c0-23.6,0-47.3,0-70.9c0-2.4-0.6-5.1,1.4-7.1C295.3,193.2,295.7,193.2,296,193.2z"/>
		<path class="st34" d="M24,232.2h-0.5H23c-0.8-3-0.8-6,0-9c4.1-5.8,5.5-6.4,12.7-3.8c1.9,0.7,2.7-0.5,4-0.9
			c5.5-1.8,9.6,0.2,10.9,5.2c1.7,6.3-0.3,11.5-4.7,12.4c-0.3-0.4-0.5-0.8-0.5-1.3c0.1-0.7,0.5-1.3,1-1.8c2.2-2.3,2.8-4.8,1.6-7.8
			c-0.6-0.9-1.2-1.8-1.8-2.6c-0.3-0.3-0.5-0.7-0.8-1c-2.8-2.2-4.8-0.8-6.6,1.4c-0.3,0.3-0.7,0.6-1.2,0.8c-1.6,0.5-2.8-0.1-3.8-1.3
			c-1.7-2-3.6-2.5-5.9-0.9c-0.5,0.4-0.9,0.9-1.3,1.4c-0.5,0.7-0.8,1.6-1.1,2.4C25,227.6,26.1,230.3,24,232.2z"/>
		<path class="st35" d="M178.1,297.3c2.8,0,5.6-0.1,8.4-0.1c1.3,0,3-0.4,3.6,1.1c0.8,1.9-0.6,3-2.1,3.9c-1.7,2.2-0.8,4.8-1,7.2
			c-0.1,2-0.7,3.8-3,3.8c-2.7,0.1-2.4-2.1-2.5-3.9c-0.2-3.1,1.3-6.7-3.4-8.2C176.6,300.6,177.1,298.6,178.1,297.3z"/>
		<path class="st36" d="M27,72.2c2.7-1.6,5.4-2,8,0c0.9,0.9,2.6,1,3.2,2.3c0,0.3-0.1,0.7-0.2,1c-0.2,0.5-0.4,0.9-0.5,1.4
			c0.5-0.4,0.4-0.9,0.5-1.4c0.2-0.5,0.1-1-0.1-1.4c-0.1-2.1,1.2-2.8,3-3.2c0.7,0.3,1.2,0.8,1.4,1.5c-0.3,2.6-1.6,5.2-0.9,7.9
			c0.3,1.3,1.9,2.6,0.4,3.9c-1.4,1.2-2.6-0.6-3.9-0.9c-1.1,0-2.3,0-3,1c-2.8,2.1-5.6,2.2-8.2-0.4c0-1.1,0.8-1.7,1.7-2.2
			c1.1-0.6,2.5-0.7,3.6-1.3c1.2-1.6,0.6-3.2,0.3-4.9c-0.2-0.3-0.4-0.7-0.6-1c-0.9-1.1-2.3-0.5-3.4-0.8C27.6,73.4,27.4,72.7,27,72.2z
			"/>
		<path class="st37" d="M279.9,311.3c-1.3-1.6-0.7-3.5-0.7-5.2c-0.1-2,0.2-4.1-2.4-4.8c-1.1-0.3-1.7-1-1.5-2.2
			c0.3-1.4,1.4-1.8,2.6-1.8c1.8-0.1,3.6-0.1,5.4,0c1.7,0,4.1-0.8,4.9,1.3c0.8,1.9-1.5,2.6-2.7,3.6c-2.3,2.1-1,5-1.3,7.5
			c-0.1,1.4-0.4,2.7-1.9,3.2C281,313.3,280.1,312.7,279.9,311.3c2.8-2.3,1.2-5.5,1.8-8.2c0-0.3,0-0.6-0.1-0.9
			c-0.6,0.3,0-0.2-0.1,0.5c-0.1,0.6,0,1.2,0,1.9C281.4,306.9,281.9,309.4,279.9,311.3z"/>
		<path class="st38" d="M16,221.2c0.7-1.3,1.6-2.2,3.2-1.7c1.5,0.5,1.9,1.8,1.9,3.2c0,3.1,0,6.3,0,9.4c0,1.6-0.2,3.2-2.3,3
			c-1.9-0.2-2.7-1.9-2.4-3.2c0.8-3.1,0-5-2.5-7.2C11.9,223,13.9,221.6,16,221.2C16,221.2,15.9,221.1,16,221.2z"/>
		<path class="st39" d="M688,204.2c0,24.7,0,49.3,0,74c-0.3,0-0.7,0-1,0c-1.3-1.3-1.4-3-1.4-4.6c0-22.1-0.1-44.2,0.1-66.3
			c0-0.5,0.2-1,0.2-1.5c0.2-0.6,0.6-1.2,1.1-1.6C687.3,204.2,687.7,204.2,688,204.2z"/>
		<path class="st40" d="M687,205.2c0,24.3,0,48.6,0,73c-0.3,0-0.6,0.1-0.9,0.1l-0.1-0.2c-1.4-1.4-1.4-3.3-1.4-5.1
			c0-21,0-41.9,0-62.9c0-1.5,0-3,0.7-4.4C685.7,205.1,686.3,204.9,687,205.2z"/>
		<path class="st41" d="M25.9,134.2c-1-0.8-1.9-0.5-2.9-0.1c-1.6-1.5-1.8-3.7-2.5-5.7c-0.1-0.5-0.1-0.9,0-1.4c1.3-2.6,0.1-4.3-3-6.3
			c1.8,2.1,3.2,3.1,2.8,5.1c-0.2,0.4-0.6,0.7-1.1,0.8c-0.5,0-0.9-0.2-1.3-0.5c-0.1-0.9-0.4-1.6-1.4-1.8c-1.9-0.3-3.9-0.7-3.3-3.3
			c0.6-2.3,2.8-1.8,4.6-1.9c2.5-0.2,4.1,1.2,5.4,3c2,2.7,1.9-0.2,2.7-0.9c0.6-0.6,1.2-0.7,1.9-0.3c0.3,0.4,0.5,0.8,0.5,1.3
			c-0.5,1.6-1.3,3.1-1,4.8c-0.2,2.3,0.4,4.6-0.9,6.7C26.3,133.9,26.1,134.1,25.9,134.2z"/>
		<path class="st42" d="M13.2,183.3c0.9-3.1,5.4-4.1,4.8-8.1c-1.4-1.3-4.3,0.4-5-2.3c-0.3-1.1,0.6-1.9,1.4-2.4
			c2.4-1.4,4.7-1.2,6.8,0.8c0,0.3-0.1,0.6-0.3,0.9c-0.5,0.7-1.3,0.5-2,0.7c1,0.2,1.7-0.2,2.3-0.9c4.4,1.4,3.3,4.2,2,7.2
			c-1.2,1.6-1.2,3.8-2.6,5.4C18.3,183.5,15.8,183.1,13.2,183.3z"/>
		<path class="st43" d="M485,297.2c2.8,2.8,4.2,12.1,2.3,15.1c-0.8,1.2-1.9,2.2-3.3,1.8c-4-1.2-8.2,0.7-12.1-1
			c-0.5-0.6-0.5-1.3-0.2-2c0.7-0.7,1.6-0.9,2.6-1c0.4,0,0.9,0,1.3,0.1c1,0.2,2.1,0.1,3-0.3c1.7-1,3.3-1.2,4.9,0
			c2.2-3,0.7-6.3,0.6-9.4c-0.2-0.7-0.2-1.4,0-2.1C484.4,297.9,484.7,297.5,485,297.2z"/>
		<path class="st44" d="M14,30.2c-3.5-0.4-3.2-3-2.9-5.2c0.4-2.7,1.5-5.4,4.7-5.6c2.8-0.1,6-1.3,8.3,1.8c0.7,0.9,1.9-0.1,2.8,0.1
			c0.3,0.3,0.5,0.6,0.6,1.1c0,0.4-0.1,0.9-0.3,1.3c-0.2,0.4-0.4,0.8-0.7,1.1c-1.1,1.9-1.2,5.1-4.8,3.4c-0.3-0.8-0.7-1.2-1.5-0.5
			c-0.4,0.2-0.8,0.4-1.2,0.4c-1,0.1-1.8-0.1-2.4-0.9c-1-2.6,1.5-3.2,2.9-4.7c-5.1-0.7-5.4-0.2-5,6.5C14.5,29.4,14.3,29.8,14,30.2z"
			/>
		<path class="st45" d="M137,301.2c0.1-0.8,0.2-1.5,1.1-1.8c1.6,1,0.6,3.4,2.3,4.4c2.3-0.8,0.4-4.6,3.5-4.7c1.4,2.6,0.3,5.3,0.7,7.9
			c-0.1,1.5-1.3,3-0.2,4.5c-0.9,2.3-2.6,1.8-3.9,0.7c-1.8-1.4-2.6-0.2-3.6,0.8c-1.9,0.2-3.9,0.8-4.7-1.9c0.3-0.3,0.5-0.6,0.8-0.8
			s0.7-0.4,1.1-0.6c0.5-0.4,0.9-0.7,1-1.3c-0.2-0.8-0.6-1.5-0.6-2.2c0-0.4,0.1-0.8,0.3-1.2C135.7,303.8,136.2,302.4,137,301.2z"/>
		<path class="st3" d="M269,279.2c0-0.7,0-1.4,0-2c0.5-0.3,1-0.4,1.5-0.2c7.5,3.3,15.2,2.1,22.9,0.8c0.6,0,1.1,0.1,1.5,0.4l0.1,0.2
			c-0.4,2.2-1.7,3.7-3.9,3.8c-5.9,0.1-11.9,0.1-17.8-0.1C271.6,282,269.9,281,269,279.2z"/>
		<path class="st27" d="M178.1,297.3c1.8,4.7,5.1,9,4.3,14.5c-0.1,0.5,0.8,1,1.6,0.8c1.1-0.3,1.8-0.9,1.9-2c0.1-1.5,0.1-3,0.1-4.5
			c0.1-1.6-0.5-3.5,1.9-3.9c0,2.8,0.1,5.7-0.1,8.5c-0.2,2.2-1.3,3.8-3.9,3.5c-2.4-0.2-2.9-1.8-3-3.8c-0.1-3.5,1.1-7.2-3.8-9
			C175.1,300.6,175.9,298.2,178.1,297.3z"/>
		<path class="st46" d="M51-23.8c0,15,0,29.9,0,44.9c0,0.3-0.1,0.8-0.2,0.9c-0.7,0.3-0.6-0.4-0.8-0.8c-1.3-1.8,0.3-4.2-1-6l0,0
			C50.9,4,49.6-7.3,50-18.6C50.1-20.4,49.4-22.3,51-23.8z"/>
		<path class="st47" d="M81,304.2c-1.3-2.3-0.5-4.1,1.4-5.6c2.1-1.6,4.5-1.8,7-1.1c0.8,0.2,1.4,0.9,1.4,1.8c0.1,1.5-1,2-2.1,2.4
			c-4,1.2-0.9,1.7,0.2,2.4c0.3,0.4,0.5,0.8,0.5,1.3c-0.3,1.1-1.1,1.4-2.1,1.4c-0.5-0.1-0.9-0.3-1.2-0.6c-1.6,0.4-0.6-4.4-3.3-1.6
			C82.1,304.8,81.5,304.7,81,304.2z"/>
		<path class="st48" d="M21.1,128.2c1.8,1.6,2.1,3.8,1.9,6c-1.4,2-3.4,2.4-5.6,2.1c-1.4-0.2-3.4,0.7-3.8-1.2c-0.3-1.7,1.6-1.6,2.8-2
			c2.3-0.7,1.9-2.3,0.5-3.2c-4.2-2.7-1.3-3.1,1.1-3.7c0.3,0,0.7,0,1,0C19.4,127.1,19.7,128.3,21.1,128.2z"/>
		<path class="st49" d="M382.2,304c4.7,1.8,4.9,4.7,1.9,8.2c-2.6,2.7-5.8,1.3-8.8,1.1c-1.2-0.1-1.7-1.4-1.7-2.7
			c0-1.5,0.9-1.9,2.2-1.9c1.2,0,2.3-0.1,3.1-1.1c0.5-0.4,1-1,1.7-0.6c2.4,1.3,1-0.5,1-1.2c-0.1-0.5,0-0.9,0.1-1.3
			C381.8,304.3,382,304.2,382.2,304z"/>
		<path class="st50" d="M21.1,172.1c-1-0.6-1.8-1.3-2.9-1.7c-1.9-0.6-3.9-0.1-4.3,1.9c-0.5,2.1,1.8,1.6,3,2.1
			c0.4,0.1,0.7,0.6,1.1,0.9c-2-0.3-4.5,0.8-5.7-1.9c-0.5-1.2,0.2-2.3,1.2-3c2.4-1.7,5-1.6,7.5-0.4c1.7,0.8,2.5,3.2,4.9,3.2
			c0,0.7,0.1,1.3,0.1,2c-1.1,2.5-0.2,5.1-0.5,7.6c-0.2,0.5-0.5,0.9-1.1,1c-0.5,0.1-1,0-1.5-0.3c-1.5-1.2-0.3-2.9-0.9-4.3
			C22.8,176.7,24.7,174.1,21.1,172.1L21.1,172.1z"/>
		<path class="st51" d="M50,125.2c0,1.6,0.1,3.3,0,4.9c-0.4,5.6-4.5,7.7-10.1,5.1c0.1-0.2,0.3-0.4,0.4-0.5c0.4-0.2,0.9-0.4,1.3-0.4
			c1.1,0,2.3,1,3.2,0c-0.4,0.5-1.2,0.3-2,0c-0.2-0.4-0.3-0.9-0.3-1.3c1.2-2.6,0.7-5.6,1.6-8.2c0.2-0.4,0.6-0.7,1-0.9
			c2.3,0.1,3,1.7,3.2,3.4c0,0.9,0.7,0.2,0.1,0.2c0,0,0-0.2,0-0.5c0-0.7-0.1-1.3,0.3-1.9C49.2,124.9,49.6,124.9,50,125.2z"/>
		<path class="st45" d="M581.9,309.3c-0.1-2,1.2-4.3-2.7-4.5c-2.1-0.1-0.9-3-1.1-4.6c0.4,0.7,0.9,1.3,1.4,2.2c1.9-1.3,1.7-5,4.7-4.8
			c2,0.1,1.7,2,1.7,3.5c-0.1,0.4-0.3,0.6-0.7,0.5c-0.7,0.6,0.6,0.8,0.3,1.4c-0.2,2.7-1.7,4.9-2.2,7.5c-0.5,2.4-2.5,3.9-5.2,2
			c-0.3-0.4-0.4-0.8-0.3-1.3C578.8,309.8,580.5,309.8,581.9,309.3z"/>
		<path class="st52" d="M48.1,72.1c3,5,2.7,8.1-1.1,12.2c-1.4-0.3-2.5-1-3.4-2.2c-0.5-2.3,0-4.6,0.3-6.9c0.1-0.4,0.3-0.8,0.6-1.2
			c0.8-0.7,1.5-1.5,2.4-2.2C47.4,71.7,47.8,71.8,48.1,72.1z"/>
		<path class="st53" d="M666.9,298.2c3.5-3.6,7.6-2.1,11.4-1.1c2,0.5,2,2.5,1,4.1c-0.8,1.3-1.5,2.5-1.3,4.1
			c-0.8,0.7-1.7,1.2-2.8,1.2c-0.8,0-1.5-0.2-2.1-0.7c-2.3-2.8,0.5-4.3,1.9-6.4c-2-1.3-4.1-0.5-6.1-0.4c-0.5,0-0.9-0.1-1.4-0.3
			C667.3,298.5,667.1,298.3,666.9,298.2z"/>
		<path class="st54" d="M485,297.2c0,0.4,0,0.7-0.1,1.1c-0.9,1-2.3,1.3-3.2,2.2c-1.8,1.8-1.2,5.1-3.9,6.3c-2.9,0.4-3.8-1.6-4.7-3.7
			c-0.5-1.7-1.1-3.3-3-3.9c-0.3-0.3-0.7-0.5-1-0.8c4.8-2.3,5.5-2,8.5,5.4C478.4,299.1,480.1,296.1,485,297.2z"/>
		<path class="st55" d="M136.9,313.1c0.5-1.4,1-2.7,1.5-4.1c2.2,0.1,2.3,5.3,5.6,2.2c-0.8-1-0.8-2,0-3c-0.3-3,0.9-6.2-1-9
			c-0.3,0.3-0.7,0.4-1.1,0.3c-0.6-0.4-0.9-0.9-0.9-1.6c2.6-1.6,3.8-0.2,4,2.1c0.3,3.6,0.2,7.3,0.1,10.9c-0.1,2.9-2,3.7-4.5,2.7
			C139.3,313.2,138.2,312.5,136.9,313.1z"/>
		<path class="st56" d="M619,297.3c3.2-0.9,6.5-0.2,9.7,0c3.1,0.2,3.1,3.1,1.2,4.1c-3.5,1.7-2.9,4.4-2.9,7.1c0.1,2.5-0.5,4.6-3,5.7
			c-0.6-0.8-2.4-0.1-2.1-1.8c0.2-0.4,0.5-0.7,0.8-1c0.7-0.5,1.4-1,1.7-1.8c0.6-2.7-0.3-5.6,1.1-8.2c-0.3-0.6,2.3-1.3,0.1-1.7
			C623.2,299.1,620.4,300.2,619,297.3z"/>
		<path class="st57" d="M133.1,311.1c-0.3,0-0.7,0.1-1,0.1c-0.1-0.3-0.2-0.6-0.2-0.9c-0.5-0.5-0.8-1-0.8-1.7
			c-0.4,0.4-0.3,1.1-0.5,1.6c-0.3,0.6-0.5,1.2-1.1,1.6c-1.3,0.8-2.5,0.4-3.6-0.4l0,0c-0.7-1.1-0.5-2.2-0.1-3.3c0.5-1,1-2,1.7-2.8
			c1.5-0.8,3.1-1.5,3.1-3.6c0.2-0.9,0.4-1.8,1.1-2.5c0.4-0.3,0.9-0.2,1.2,0.1l0,0c0.3,2.1,2.6,3.6,2,6c0,0.3,0,0.7,0,1
			C134,307.7,134.6,309.8,133.1,311.1z"/>
		<path class="st58" d="M46,185.2c3.1-3.4,4.9-6.9,1-11c-0.3-0.4-0.3-0.8,0-1.2c0.4-0.2,0.8-0.2,1.1,0.2c2.7,3.6,2.7,8.6,0.1,11.7
			c-3.1,3.6-6.3,2.7-9.6,0.4c-0.9-0.6-1.7-1.1-2.5,0c-0.4,0.3-0.7,0.3-1-0.1c0.9-4.5,3.3-1.3,5.1-0.9C41.9,185.5,44.1,184,46,185.2z
			"/>
		<path class="st59" d="M374.9,299.1c1.2-2,3.2-2,5.2-2c1.8,0,3.9-0.3,4.6,1.9c0.7,2.2-1,2.7-2.6,3.4c-0.8,0.3-0.2,1.1,0.1,1.6
			c-0.1,0.1-0.3,0.2-0.4,0.4c-2.7,1.3-4,0-4.6-2.5c0-1.6,0.9-2.5,2.7-3.2c-1.7,0.4-2.9,2-4.5,0.9C375.2,299.5,375,299.3,374.9,299.1
			z"/>
		<path class="st60" d="M227.1,302.1c0.5-0.3,1.3-0.5,1.6-0.9c3.4-5.9,4.1-6,8.8-0.8c0.1,0.2,0.9-0.2,1.3-0.4
			c0.2,0.2,0.4,0.3,0.6,0.5c0.8,1.5,0.9,3.2-0.7,3.9c-2.2,1-3.2-1-4.1-2.5c-0.5-0.6-0.9-1.4-1.9-1.3c-0.7,0.4-1,1.1-1.3,1.8
			c-1.2,1.4-0.8,4.5-4,3.8C226.1,304.9,225.7,303.6,227.1,302.1z"/>
		<path class="st61" d="M227.1,302.1c-0.5,1.5,0.2,2.7,0.9,4c2.4,0.6,3.4,2.1,2.8,4.5c-0.2,0.5-0.5,0.9-0.8,1.3
			c-2.5,1.7-4,0.6-4.9-1.8c-0.1-2.6-1.6-4.9-1.7-7.5c-0.1-2.7,0.9-3.7,3.5-2.3c0.2,0.2,0.3,0.4,0.4,0.7
			C227.3,301.4,227.2,301.8,227.1,302.1z"/>
		<path class="st62" d="M619,297.3c3.2,1.7,6.8,0.2,10.1,1.2c-0.1,2-1.6,2.4-3,2.8c-0.2,0-0.4,0-0.6,0c-0.8-0.1-1.5-0.1-2,0.7
			c-0.1,0.2-0.3,0.3-0.4,0.4c-0.3,0.2-0.7,0.4-1.1,0.5c-0.4,0.1-0.8,0-1.2-0.1c-0.4-0.2-0.7-0.5-0.9-0.8
			C619,300.6,614.8,299.8,619,297.3z"/>
		<path class="st63" d="M33,136.2c-3.1,2.1-5.2,0.4-7.1-1.9l0.2-0.1c0.3-0.3,0.5-0.6,0.7-1c0.4-1.4,0.1-2.9,0.2-4.3c0-0.7,0-1.3,0-2
			c0-0.9,0-1.9,0.7-2.7c0.4-0.3,0.8-0.3,1.3-0.2c2.3,2.3,0.3,6.8,4.3,8.3c0.6,0.8,0.8,1.7,0.5,2.7C33.6,135.4,33.3,135.8,33,136.2z"
			/>
		<path class="st60" d="M241,312.1c-4.5,3.2-5.5,2.7-7.5-4c-1.7,0.8-1.1,3.1-2.5,4.1c-0.9,0.4-1-0.1-0.9-0.8l-0.1-0.2
			c1-1.3,0.1-2.9,0.6-4.3c1-2.5,2.3-4.3,4.8-1.4c0.6,1,0.8,2.1,1.4,3.1c0.7,1.5,2,1.2,3.2,1c0.5,0,0.9,0.2,1.2,0.5
			C241.5,310.9,241.6,311.6,241,312.1z"/>
		<path class="st64" d="M523.1,310.1c-0.3-3.3,1.2-7.1-3.3-9.2c-1.6-0.8-1.1-3.5,1.5-3.7c2.9-0.2,5.9,0.1,8.8,0.2
			c-1.8,3.6-5.2,1.5-7.8,2.2c-0.6-0.3-0.3,0.2-0.1,0.2c1.9-0.4,2.4,1.2,2.9,2.5c0.4,2.5,0.7,5-0.6,7.4
			C524.2,310.4,523.7,310.5,523.1,310.1z"/>
		<path class="st65" d="M524.1,302.2c-0.8-1-1.5-2.1-2.4-3.3c2.7-1.5,6,0.5,8.5-1.4c0.2,0,0.4,0.1,0.6,0.1c1.9,1.9-0.1,2.8-1,4
			c-0.5,0.5-1,1-1.5,1.5C526.5,304.2,525.1,304.1,524.1,302.2z"/>
		<path class="st66" d="M50,125.2c-0.3,0-0.7,0-1,0.1c-2,0.3-2.2-2.1-3.7-2.4c-2.4-1.6-4.4-0.2-6.5,0.8c-2.7,1.3-4.2,0.5-3.9-2.6
			c0.4-0.3,0.8-0.3,1.2,0.1c1.6,0.1,2.7-0.7,4.1-1.3C45.1,117.5,48.9,119.7,50,125.2z"/>
		<path class="st67" d="M89,305.1c0-0.3,0-0.7,0-1c2.7,0.5,4.2,2.1,3.8,4.8c-0.5,3-2.7,4.6-5.4,5c-2.8,0.5-5.6,0.3-7.2-2.8
			c2.2-2.1,4.5,0.8,6.7-0.1C89.9,309.9,90,307.7,89,305.1z"/>
		<path class="st68" d="M44,82.2c1.5,0,2.9,0.1,3.1,2.1c-3.5,3.5-6.4,2.5-9-1.1c1.2-1.3,2.3,0.9,3.5,0.1c0.3-1.2-1.3-1.2-1.5-2.1
			c0.4-0.3,0.7-0.6,1.2-0.7C42.6,80.3,43.5,80.9,44,82.2z"/>
		<path class="st53" d="M673,310.2c0.2,2.6-0.9,4.1-3.7,4c-3-0.1-3.5-2.1-3.3-4.4c0.3-3.9-1-7.9,0.9-11.6l0.1,0.1
			c2.3,2.8,1.1,6.1,1.4,9.2c0.1,1.4-0.2,3,1.9,3.2C671.2,310.5,672,309.5,673,310.2z"/>
		<path class="st18" d="M223,281.2c7,0,14,0,21,0c-1.7,1.5-3.8,2.2-6,2C233,282.6,227.9,282.8,223,281.2z"/>
		<path class="st69" d="M225,312.2c-1.8-3.9-3.4-7.8-3.1-12.2c0.2-2,0.6-3.9,3.1-3.5c2.4,0.4,4,1.8,2.3,4.5l-0.4,0.2
			c-0.6-0.9-0.9-2.4-2.5-1.7c-1.1,0.5-1,1.6-0.7,2.6c0.8,2.7,1.8,5.3,1.8,8.1C225.5,311,225.6,311.7,225,312.2z"/>
		<path class="st70" d="M13.2,183.3c2.9-2.3,5.4,0,8,0.7c0.7-0.1,1,0.2,1.1,0.9c-1.7,3.9-5.2,1.9-7.9,2.2c-1.2-0.6-2.7-0.9-2.1-2.8
			C12.5,183.9,12.9,183.6,13.2,183.3z"/>
		<path class="st71" d="M126.9,308.2c-1.1,0.8-0.8,2-1,3.1c-2.2-4.2-0.6-8.6,0.6-12.3c1-3,4.4-2.7,6.5,0.3c-0.4,0-0.8,0.1-1.1,0.1
			c-0.9,0.8-2.4,0.6-3,1.8C127.9,303.4,127.8,305.9,126.9,308.2z"/>
		<path class="st72" d="M140.9,298c0.4,0.4,0.8,0.7,1.2,1.1c0.9,2.9,0.2,5.2-2.2,7.1c-3.8-1.4-1.2-4.6-1.9-6.8
			C138.8,298.5,139.8,298.1,140.9,298z"/>
		<path class="st44" d="M35,185.1c0.3,0,0.7,0,1,0.1c-1.4,4-4.5,3.1-7.4,2.7c-1.6-0.3-3.1-1.1-4.6-1.7c-0.9-1-0.8-2,0-3
			c0.3,0,0.7,0,1,0c0.4-0.5,0.7-0.5,0.9,0.1C28,188.8,31.7,185.6,35,185.1z"/>
		<path class="st71" d="M568.1,312.1c2.3,0.3,4.4,0.3,4.8-2.7c0.2-1.4-0.1-3.5,1.7-3.7c2.1-0.1,2,2.2,2.6,3.6
			c0.6,0.4,1.3,0.8,1.1,1.7c-0.2,0-0.4,0.1-0.6,0.1c-0.3,0.5-0.5,0.6-0.8,0.1c-0.7-1-1.5-2.1-2.3-3.2
			C573,314.3,571.5,315.2,568.1,312.1z"/>
		<path class="st73" d="M576.9,311.3c0.3,0,0.6,0,0.8-0.1c2.4,2.8,4.5,1.3,4.9-1.1c0.5-2.7,1.9-5.2,2.2-7.9
			c-0.2-0.3-0.2-0.7,0.2-0.9c0.3-0.1,0.6-0.1,0.8-0.2c0.8,3.8-1.6,7-2.3,10.5c-0.3,1.5-1.7,2.4-3.3,2.5
			C578.3,314.2,577.2,313.2,576.9,311.3z"/>
		<path class="st74" d="M536,85.2c-6.2-2.2-12.7-0.4-19-1c0-0.3,0-0.7,0-1c6.3-1.7,12.7-1.5,19,0c1,0.7,2,1.3,3,2
			c0,0.7,0.1,1.3,0.1,2l-0.2,0.1C537.1,87.7,536.4,86.7,536,85.2z"/>
		<path class="st75" d="M380,307.2c-0.3,2.1-1.8,2-3.3,2c-1.2,0-2.5,0.1-2.5,1.6c0,1.6,1.2,2.2,2.6,2.4c2.5,0.3,4.9,0.2,7.2-0.9
			c-2.8,3.8-6.5,1.9-9.8,1.3c-1.2-0.2-1.3-1.8-1.2-3c0-1.4,0.7-2.2,2.1-2.3c1-0.1,2,0,2.8-0.8c0.1-0.2,0.3-0.3,0.4-0.5
			C378.9,306.6,379.5,306.7,380,307.2z"/>
		<path class="st54" d="M725,297.2c3.6,0.9,4.3,2.5,1.1,4.8c-1,0.7-1.7,0.8-0.9,2c-0.1,0.2-0.3,0.4-0.4,0.6
			c-0.9,0.6-1.9,0.6-2.9,0.3c-0.7-0.3-1.2-0.8-1.5-1.5c-1.3-3.8,2.4-3.7,4-5.2C724.5,297.9,724.7,297.6,725,297.2z"/>
		<path class="st3" d="M367,65.2c8,0,16,0,24,0c0,0.3,0,0.6,0,0.9c-7.7,0-15.4,0-23,0c-0.3,0.4-0.7,0.4-1,0
			C367,65.9,367,65.5,367,65.2z"/>
		<path class="st23" d="M148,65.2c6.4,0,12.9,0,19.3,0c1.6,0,3.3-0.5,4.7,1c-0.7,0-1.3,0-2,0c-6.7,0.8-13.3,0.8-20,0
			c-0.7,0-1.3,0-2,0C148,65.9,148,65.6,148,65.2z"/>
		<path class="st3" d="M76,66.2c4.4-2.1,9.1-0.6,13.6-0.9c3.5-0.2,7,0,10.4,0c0,0.3-0.1,0.6-0.1,1c-0.3,0.4-0.6,0.4-1,0
			C91.3,66.2,83.7,66.2,76,66.2z"/>
		<path class="st76" d="M528,302.2c0.3-0.3,0.7-0.6,1-0.9c0.5,0.2,0.8,0.5,1,0.9c-0.3,0.7-0.6,1.3-0.9,2c1.2,3,1.4,6-0.1,9
			c-3.3,1.5-6,1.9-5.9-3.1c0.3,0.1,0.5,0.1,0.8,0.2c2.4,0.3,2.5-1.5,2.7-3.1C526.7,305.4,526.8,303.7,528,302.2z"/>
		<path class="st44" d="M13,37.2c-1.8-0.9-2.4-2.1-0.8-3.7c1-1,1.8-2.2,2.8-3.3c2.3-1.7,3.9-1.4,4.8,1.5c0,0.5-0.1,0.9-0.3,1.4
			c-1,1.8-3.8,0.6-4.6,2.8c-0.1,0.2-0.1,0.4-0.2,0.6c-0.1,0.4-0.3,0.7-0.6,1C13.7,37.6,13.3,37.5,13,37.2z"/>
		<path class="st77" d="M99,66.2c0.3,0,0.7,0,1,0c6.9,0,13.8,0,20.7,0c0,0.3,0,0.7,0,1c-6.9,0-13.8,0-20.7,0
			C99.7,66.9,99.3,66.5,99,66.2z"/>
		<path class="st77" d="M367,66.2c0.3,0,0.7,0,1,0c-0.3,0.3-0.6,0.7-1,1c-6.9,0-13.8,0-20.7,0c0-0.3,0-0.7,0-1
			C353.2,66.2,360.1,66.2,367,66.2z"/>
		<path class="st77" d="M269,66.2c-0.3,0.3-0.7,0.7-1,1c-5.4,0-10.9,0-16.3,0c-1.6,0-3.3,0.5-4.7-1C254.3,64.5,261.7,64.6,269,66.2
			L269,66.2z"/>
		<path class="st4" d="M174,67.2c0-0.3,0-0.7,0-1c7.3,0,14.7,0,22,0c0,0.3,0,0.7,0,1C188.7,67.2,181.3,67.2,174,67.2z"/>
		<path class="st10" d="M269,66.2c-7.3,0-14.7,0-22,0c0-0.3,0-0.6,0-1v-0.1c7.3-0.8,14.6-0.8,22,0C269,65.5,269,65.9,269,66.2z"/>
		<path class="st71" d="M573.7,301c-0.2,0.2-0.5,0.4-0.7,0.6c-1.1,0.9-1.2,3.4-2.9,2.9c-2-0.6-0.8-2.9-1.1-4.3
			c-0.4-0.5-0.3-0.9,0.1-1.2c1.7,1.5,2.7-0.4,4-0.8c0.3,0.2,0.6,0.4,0.8,0.8C574.1,299.7,574.6,300.4,573.7,301z"/>
		<path class="st21" d="M174,281.2c7,0,14,0,21.1,0C188,282.8,181,282.8,174,281.2z"/>
		<path class="st6" d="M76,281.2c6.7,0.6,13.4-1.2,20,1C89.3,281.6,82.6,283.4,76,281.2z"/>
		<path class="st29" d="M49.9,33.1c-0.2,3.1-2.1,5.9-0.8,9.2c-2.6,0-1.8-3.5-4.1-3.1c-0.6-0.9-0.1-1.6,0.3-2.3
			c0.4-0.5,0.7-1,1.1-1.5C47.4,34.3,48,32.6,49.9,33.1z"/>
		<path class="st77" d="M150,66.2c6.7,0,13.3,0,20,0C163.3,67.9,156.7,67.9,150,66.2z"/>
		<path class="st60" d="M238.8,300c0.2-3.1,2.2-3.5,4.5-2.5s1.8,2.7,0.6,4.4c-0.4,0.7-0.6,1.5-0.8,2.2c-0.4,0.4-0.8,0.4-1.2,0.2
			c-1-0.9-0.5-2.6-1.7-3.4c-0.3-0.2-0.7-0.4-1-0.6C239,300.2,238.9,300.1,238.8,300z"/>
		<path class="st78" d="M48.1,72.1c-0.4,0-0.7,0-1.1,0c-2-0.1-4-1-6-1c-1.3,0.7-2.3,1.7-3,3l0,0c-1.4,0-2.4-0.7-3-2
			c0.4,0,0.7,0,1.1,0c2.7-0.1,4-3.5,7.1-3.1C45.4,69.4,47.7,69.2,48.1,72.1z"/>
		<path class="st79" d="M27,22.2c0-0.3,0-0.7,0-1c3-3.4,6-0.7,8.9,0c0,0.7,0,1.3,0.1,2c0.3,0.5,0.2,0.9-0.3,1.2
			C33,23.2,29.6,24.4,27,22.2z"/>
		<path class="st80" d="M472.1,311.3c0,0.6-0.1,1.2-0.1,1.8c-1.7,0.1-3.8,0.5-3.9-1.8c0-4-1.2-8.2,0.8-12.1c1.9,1.5,1.3,3.6,1.5,5.5
			c0.2,1.7-0.6,3.7,1.1,5.1C472,310.1,472.5,310.5,472.1,311.3z"/>
		<path class="st3" d="M468,281.3c6.3,0.5,12.8-1.2,19,0.9C480.7,281.7,474.2,283.3,468,281.3z"/>
		<path class="st81" d="M471.3,310.3c-1.8,3-2.3,1.3-2.4-0.8c-0.1-3.5,0-6.9,0-10.4c0.1-0.3,0.1-0.5,0.2-0.8c0.3,0.1,0.7,0.2,1,0.2
			c2.4,2.8,0.6,6.4,1.7,9.4C472,308.8,471.8,309.6,471.3,310.3z"/>
		<path class="st79" d="M39.9,36.3c-1.8-0.5-3.3-2-5.4,0.3c-1.5,1.6-4.3,0.5-6.5,0.6c-0.4-0.5-0.3-0.9,0.1-1.4
			c2.1-1.6,4.9-1.2,7.1-2.9c2.1-1.6,4.3-0.1,5,2.7C40.1,35.8,40,36.1,39.9,36.3z"/>
		<path class="st69" d="M34,172.2c-2.7-2.2-5.3-0.4-8,0c3.6-4.2,5.7-4.2,9.9,0c-0.3,0.5-0.6,0.5-1,0h-0.5H34L34,172.2z"/>
		<path class="st82" d="M569.1,299.1c0,0.4-0.1,0.8-0.1,1.2c-0.3-0.1-0.5-0.1-0.8-0.1c-0.4,0-0.5-0.2-0.5-0.4c0-0.2,0.1-0.4,0.2-0.4
			c-1-1.3-1.7-0.7-1.8,0.5c-0.2,1.8-0.1,3.5-0.1,5.3c-0.6-1.5-1.4-2.9-1.8-4.5c-0.4-1.4,0.1-2.7,1.5-3.2
			C567.2,296.9,568.6,297.1,569.1,299.1z"/>
		<path class="st83" d="M673,310.2c-0.7,0.6-1.5,1.2-2.2,1.9c-1.5-3.3,0.1-5,3-6c0.4-0.2,0.8-0.5,1.1-0.8c1,0,2,0,3,0
			C678.2,308.8,673.8,307.6,673,310.2z"/>
		<path class="st3" d="M100.1,277.2c0-5.7,0-11.4,0-17.1C101.6,265.9,101.6,271.5,100.1,277.2z"/>
		<path class="st84" d="M726,312.2c-2.5,3.3-5.9,2.4-8.9,1.3c-1.7-0.6-3-2.3-1.1-4.3c0.2,0.1,0.4,0.2,0.6,0.3c2,1.8,4,3.2,6.9,1.9
			c0.8-0.3,1.7-0.6,2.6-0.3C726.4,311.4,726.3,311.8,726,312.2z"/>
		<path class="st85" d="M81,304.2c0.6,0.1,1.3,0.1,1.9,0.2c1.6,0.1,2.9,0.9,4,1.9l0,0c0.9,1.1,0.9,2.3,0,3.4
			c-2.1,1.2-4.2,1.1-6.1-0.5c1.1-1.4,2.8-0.5,4.4-1.4C83.1,307.2,81.5,306.2,81,304.2z"/>
		<path class="st86" d="M19,73.2c-1,1.3-2,2.7-2.9,4c-1.3-0.8-1-2.2-1.5-3.3c0.3-2.5,1.3-4.3,4.3-4c0.4,0.4,0.5,0.8,0.3,1.4
			C19.1,71.9,19.1,72.6,19,73.2z"/>
		<path class="st87" d="M24,183.2c0,1,0,2,0,3c-0.3,0.3-0.7,0.7-1,1c-3.1,0.2-6.3,1.9-9-1c2.7-0.6,6.2,1.4,8.1-2.3
			c-0.1-0.7,0.1-1.1,0.9-0.8C23.3,183.2,23.6,183.2,24,183.2z"/>
		<path class="st88" d="M529,313.2c0-3,0.1-6,0.1-9C532,307.3,532.1,310.2,529,313.2z"/>
		<path class="st44" d="M36,121.2c-0.4,0-0.7,0-1.1,0c-2.3,1.5-4.6,0.3-7-0.1c-0.6,0-1.3,0.1-1.9,0.1
			C29.8,117.4,31.7,117.4,36,121.2z"/>
		<path class="st44" d="M14,186.2c2.8,2,6,0.6,9,1c-2.9,1.9-6,1.1-9,0.7c-1.3-0.2-3.9-1.1-1.8-3.6C12.8,184.9,13.4,185.6,14,186.2z"
			/>
		<path class="st89" d="M135,305.2c-1.3-1.8-2.4-3.7-2-6c1.3,0.7,1.5,3.6,4,2C136.3,302.5,138.8,305.4,135,305.2z"/>
		<path class="st90" d="M19.2,71.3c-0.1-0.3-0.2-0.7-0.2-1c-0.7-1.1-2.2,0.1-3-1c1.8-3.1,3.9-2.3,5.3,0.1
			C22.4,71.3,21.3,72.1,19.2,71.3z"/>
		<path class="st91" d="M620.1,302.1c0.3,0,0.6,0,0.9,0.1c2.3,2.8,1.3,6.1,1.2,9.2c-0.1,0.3-0.1,0.5-0.2,0.8c0.7,0.6,1.4,1.3,2,1.9
			c-1.8,0.2-3.3-0.2-4-2c-0.7-3-0.8-6,0-9C620,302.8,620,302.5,620.1,302.1z"/>
		<path class="st92" d="M13,37.2c0.3,0,0.7,0,1,0c2-1.8,4.3-1.5,6.6-1c0.6,0.2,1,0.6,1.4,1.1C19,40.6,16,39.7,13,37.2z"/>
		<path class="st64" d="M530,302.2c-0.3-0.3-0.7-0.6-1-0.9c0.4-1.3,2-2.1,1.7-3.7c1.4-0.4,2.2,0.1,2.2,1.6
			C533,301.1,531.8,302,530,302.2z"/>
		<path class="st93" d="M35,234.3c-3,3.6-6,2-9-0.1c-0.5-0.5-0.6-1.1-0.5-1.7c0.3-0.4,0.6-0.6,1-0.6c0.9,0.1,1.6,0.5,2.4,1
			c2,2,4.2-0.6,6.2,0.3C35.5,233.5,35.4,233.9,35,234.3z"/>
		<path class="st29" d="M52,34.2c0,4.7,0,9.3,0,14C50.4,43.5,50.4,38.9,52,34.2z"/>
		<path class="st94" d="M49.9,33.1c-1,1-2,2.1-2.9,3.1c-0.5,0.4-0.9,0.4-1.3-0.1c0.6-3.7,1.7-7.3,3.2-10.8c1.9,2.1,0.6,4.6,1,6.9
			C49.9,32.5,49.9,32.8,49.9,33.1z"/>
		<path class="st95" d="M225,312.2c0-0.7,0-1.4,0.1-2.1c0.4-0.4,0.7-0.4,0.9,0.1c0.9,2.1,2.4,2.1,4.2,1.2c0.3,0.3,0.6,0.5,0.9,0.8
			C229,315,227,315,225,312.2z"/>
		<path class="st75" d="M377.8,307.4c-4.9-1-5.9-3.1-3.7-8.1c1.2,1,1.1,2.6,1.7,3.9c0.5,1.1,1.5,1.8,2.3,2.6
			c0.2,0.4,0.3,0.7,0.2,1.1C378.1,307.1,378,307.2,377.8,307.4z"/>
		<path class="st96" d="M87,312.1c-2.6,1.9-4.4-1.7-6.8-1c-0.1-0.3-0.1-0.6,0-0.9c2.2-1.1,4.4-0.4,6.7-0.4
			C87.6,310.5,87.6,311.3,87,312.1z"/>
		<path class="st54" d="M27,83.2c2.4,2.8,5.2,1.8,8,1c-3,3.5-6,2.5-9,0c0-0.3,0-0.7,0-1C26.4,82.9,26.7,82.9,27,83.2z"/>
		<path class="st97" d="M48.1,173.2c-0.4,0-0.7,0-1.1,0c-2.2,0.4-4.3,0.6-5.9-1.4c-0.1-0.2-0.1-0.5-0.2-0.7
			C44,169.5,46.5,169.8,48.1,173.2z"/>
		<path class="st84" d="M715.9,304.4c-1.5-5-0.7-6.2,4.2-7.1c0.2,0.2,0.3,0.5,0.3,0.8s0,0.4-0.1,0.4c-0.3,0.6-0.7,1.1-1.2,1.5
			c-1.2,0.9-1.7,2.2-2.3,3.5C716.6,303.9,716.2,304.2,715.9,304.4z"/>
		<path class="st54" d="M726,312.2c0-0.4,0-0.7,0-1.1c-0.6-2.2-1-4.4-1.2-6.7c0.1-0.1,0.2-0.3,0.3-0.4c1.3,0.2,2.3,0.9,2.9,2.2
			c1.1,1.7,1.1,3.3,0,5C727.5,311.9,726.8,312.2,726,312.2z"/>
		<path class="st98" d="M23,223.2c0,3,0,6,0,9c-2-3.1-0.7-6.5-0.7-9.8c0,0,0.3-0.1,0.4,0C22.8,222.6,22.9,222.9,23,223.2z"/>
		<path class="st97" d="M35,172.2c0.3,0,0.6,0,1,0c2.2,2,3.1-1.6,5-1.2l0.2,0.3c0.3,1-0.4,1.4-1.1,1.9c-0.7,0.7-1.3,1.3-2,2l0,0
			C36.1,175.1,35.1,174.1,35,172.2z"/>
		<path class="st99" d="M25.9,232.2c0,0.7,0.1,1.3,0.1,2c-1-0.4-1.6-1.1-2-2c0.4-2.7-0.9-5.5,1-8C27.2,226.6,26.4,229.4,25.9,232.2z
			"/>
		<path class="st100" d="M620,303.2c0,3,0,6,0,9C619.2,309.2,617.3,306.2,620,303.2z"/>
		<path class="st29" d="M52,50.2c0,3.7,0,7.3,0,11C50.4,57.5,50.4,53.9,52,50.2z"/>
		<path class="st101" d="M45.9,235.2c0,0.3,0,0.7,0,1c-3.1,0.1-6.3,0.5-8-2.9c0.3-0.3,0.7-0.5,1.2-0.6c0.9,0,1.8,0.3,2.6,0.7
			C43.1,234,44.8,233.8,45.9,235.2z"/>
		<path class="st88" d="M46,37.2c-0.3,0.7-0.7,1.3-1,2c-1.9,0-4,0.3-5-2C42,35.6,44,35.5,46,37.2z"/>
		<path class="st102" d="M241.9,304.2c0.4,0,0.7,0,1.1,0c-0.6,2.7-0.5,5.5-2,7.9c0-0.7-0.1-1.4-0.1-2.1c-1-1-1.2-2.3-0.9-3.6
			C240.3,305.4,240.8,304.5,241.9,304.2z"/>
		<path class="st45" d="M573.1,299.3c0-0.3,0-0.7-0.1-1c2.6-1.9,4.3-1.3,5,1.9c-0.3,0-0.7,0-1,0
			C575.6,300.6,574.3,300.1,573.1,299.3z"/>
		<path class="st103" d="M130,311.1c0.2-1.4-0.4-3,1.3-4.2c1.1,0.9,0.7,2.2,0.7,3.4c-0.7,0.7-1.3,1.3-2,2c-0.3-0.2-0.4-0.5-0.3-0.7
			C129.8,311.3,129.9,311.1,130,311.1z"/>
		<path class="st71" d="M130,311.1c0,0.4,0,0.7,0,1.1c-2.1,2.5-3.3,1.6-4.1-1C127.3,311.2,128.6,311.2,130,311.1z"/>
		<path class="st28" d="M16,69.2c1.1,0,2.3-0.2,3,1c-2.4,0.2-3.6,1.6-4,3.9c-0.2,0.3-0.5,0.4-0.8,0.2L14,74.1
			C13.7,72.1,15,70.7,16,69.2z"/>
		<path class="st79" d="M19,33.2c0.2-3.1-1.8-3.2-4-3c-0.3,0-0.6,0-1,0c0-0.3,0-0.6,0-1c0.4-0.5,0.8-0.8,1.4-1
			c0.6-0.1,1.1-0.2,1.7-0.1C21.6,29.4,21.9,30.3,19,33.2z"/>
		<path class="st84" d="M720.7,307.4c-2.4,0.2-3.8-1-4.8-3c0.1-0.1,0.2-0.2,0.4-0.4c1.8-0.9,3.1,0.3,4.4,1.2
			c0.3,0.3,0.6,0.7,0.7,1.1C721.4,306.9,721.1,307.2,720.7,307.4z"/>
		<path class="st104" d="M27.9,36.3c0,0.3,0.1,0.6,0.1,0.9c-1.8,0.4-2.9-0.9-4-2c-0.1-0.2-0.3-0.3-0.4-0.5c-0.1-2.1,1-2,2.4-1.3
			c0.5,0.3,1,0.7,1.4,1.2C27.7,35.1,28,35.6,27.9,36.3z"/>
		<path class="st105" d="M728,311.2c0-1.7,0-3.3,0-5C730.6,307.9,730.6,309.5,728,311.2z"/>
		<path class="st84" d="M716,309.2c1.2-1.7,3.6-0.1,4.7-1.8c0.2-0.1,0.3-0.2,0.5-0.3c1.6,0.5,1.5,1.4,0.7,2.6
			c-1.9,1.2-3.8,1.2-5.7-0.2L716,309.2z"/>
		<path class="st67" d="M87,310.2c-2.3,0-4.6,0-6.9,0c0.2-0.4,0.5-0.7,0.7-1.1c2,0,4.1,0,6.1,0.1C87.2,309.5,87.2,309.9,87,310.2z"
			/>
		<path class="st79" d="M46,37.2c-2,0-4,0-6,0c0-0.3-0.1-0.6-0.1-0.9l0.1-0.2c0.4-0.4,0.8-0.7,1.3-0.9c1.7-0.4,3.3-0.4,4.6,0.9
			c0.3,0,0.7,0.1,1.1,0.1C46.7,36.5,46.3,36.9,46,37.2z"/>
		<path class="st18" d="M244,281.2c1-1.3,2-2.7,3-4C247.1,279.3,246.6,281,244,281.2z"/>
		<path class="st51" d="M39,233.2c-0.4,0-0.7,0-1.1,0.1c-1,0.3-1.9,0.7-2.9,1c0-0.4,0-0.7,0-1.1c0-2.6,1.4-2.6,3.3-1.8
			C38.9,231.8,39.3,232.4,39,233.2z"/>
		<path class="st51" d="M39.9,135.3c-1.3-0.7-2.5-1.3-3.8-2c-0.1-0.2-0.2-0.4-0.3-0.6c0.3-0.7,0.8-1,1.5-1.1c0.5,0,0.9,0.1,1.3,0.3
			c1.2,0.8,2.5,1.5,1.4,3.3C40.1,135.1,39.9,135.3,39.9,135.3z"/>
		<path class="st106" d="M720,298.2c0-0.3,0-0.6,0.1-0.9c1.6,0,3.3,0,4.9-0.1c0,0.3,0,0.6,0.1,0.9c-0.2,0.2-0.4,0.4-0.6,0.6
			C722.9,299.4,721.3,299.5,720,298.2z"/>
		<path class="st51" d="M33,136.2c0-0.3,0-0.7,0-1c0.9-0.8,1-2.7,3-2l0.1,0.1C35.8,135.1,34.9,136.2,33,136.2z"/>
		<path class="st59" d="M374.9,304.3c-1.5-1.5-0.8-3.3-0.8-5c0.3-0.1,0.5-0.1,0.8-0.2l0.3,0.3c0.3,0.3,0.5,0.7,0.7,1.2
			c0.2,0.9,0.2,1.8-0.1,2.7C375.6,303.7,375.3,304.1,374.9,304.3z"/>
		<path class="st3" d="M687,205.2c-0.3,0-0.6,0-1,0c-1.3-0.4-1.7-1.2-1.4-2.5c0.1-0.2,0.3-0.3,0.4-0.5c0.3,0,0.6,0,1,0
			c0.8,0.5,1,1.2,1,2C687,204.5,687,204.9,687,205.2z"/>
		<path class="st104" d="M22,37.2c-0.3,0-0.7,0-1,0c-0.1-0.2-0.3-0.4-0.4-0.6c0.1-0.2,0.1-0.5,0.2-0.7c0.9-1.1,1.8-1.7,3.2-0.7
			l0.1,0.1C23.9,36.5,23.3,37.1,22,37.2z"/>
		<path class="st18" d="M220,278.2c1.3,0.7,2.3,1.7,3,3C221.1,281.1,220.1,280.1,220,278.2z"/>
		<path class="st107" d="M440,278.2c-0.9,2.1-2.8,2.2-4.6,2.2c-4.5,0-9-0.1-13.5,0c-3.5,0.1-5.2-1.5-5.2-5.1c0.1-4.8,0-9.6,0-14.5
			c0-3.3,1.5-4.9,4.9-4.8c4.8,0.1,9.6,0,14.5,0c2.2,0,4.4,0.8,4.5,3C441,265.5,442.1,271.9,440,278.2c-0.4-0.4-0.7-0.9-0.9-1.5
			c-0.6-5.6,0.5-11.2-0.7-16.8c-6.4-2.2-12.7-2-19.1-0.1c-0.9,3.4-0.2,6.9-0.4,10.3c0.1-11.2-2-11.6,11.6-11.4c2.4,0,5-0.5,7.3,0.9
			c0.5,0.4,0.8,0.8,0.9,1.4c0.4,4,0.1,8,0.2,12C439.1,274.8,438.6,276.7,440,278.2z"/>
		<path class="st108" d="M710.8,243.2c0.6-2.2,2.3-3,4.2-2.6c4.5,0.8,9,0.4,13.5,0.4c3.7,0.1,5.6,1.7,5.6,5.4c0,9.5,0,19,0,28.5
			c0,2.7-1,5-3.6,5.2c-5.8,0.3-11.6,0.1-17.5,0c-1,0-1.8-0.9-2.1-1.9c1.3-2,1.6-4.2,1.6-6.6c-0.1-7-0.1-13.9,0-20.9
			c0.1-6,0.6-6.5,6.6-6.5c2,0,4,0,5.3,0c-3.1,0.1-6.9-0.1-10.7,0.1c-0.6,0.1-1.1,0-1.6-0.1C711.6,244,711.2,243.6,710.8,243.2z"/>
		<path class="st109" d="M710.8,243.2c0.4,0,0.8,0.1,1.2,0.1c0.2,6.9-0.1,13.9-0.1,20.8c0,3.8,0.5,7.4,0.9,11.1
			c0.4,0.6,0.7-0.4,0.2,0c-0.2,0.2-0.4,0.1-0.4-0.3c-0.8-10.6-1.4-21.1,0.3-31.6c5.5,0,11,0,16.5,0c0.9,0,2.2-0.1,1.9,1.5
			c-0.2,1-1.2,0.8-2,0.8c-3.2-0.1-6.3,0.1-9.5-0.3c-5-0.6-6.2,1.5-6,6.2c0.4,7.6,0.1,15.3,0.1,23c0,2.2,0,4.1-3,3.9
			c-1.4-1.3-0.9-3.1-0.9-4.7c0-8.6,0-17.1,0-25.7C710.1,246.3,709.6,244.6,710.8,243.2z"/>
		<path class="st107" d="M367.9,250.1c0-7.8,0.1-15.6,0-23.4c-0.1-4.5,2-6.3,6.3-6.3c4,0.1,8-0.1,12,0.1c4,0.1,6,2.1,5.9,6.3
			c-0.1,16-0.1,31.9,0,47.9c0,3.9-1.6,5.9-5.6,5.8c-4.3-0.1-8.6,0-13,0c-4,0-5.6-2.1-5.6-5.9C367.9,266.3,367.9,258.2,367.9,250.1z"
			/>
		<path class="st110" d="M563,154.2c0.3-0.7,0.6-1.3,0.9-2c6.8-2.1,13.9-1,20.8-0.8c2.7,0.1,3.4,2.7,3.4,5.3c0,6,0,12,0,18
			c0,32.8,0,65.6,0,98.4c0,6.7-1.5,8.1-8.3,8.1c-3.3,0-6.7,0-10,0c-1.8,0-3.7,0.2-4.8-1.8c0.2-0.2,0.5-0.4,0.7-0.6
			c3-0.7,6-0.2,8.9-0.2c10,0,10.6-0.5,10.6-10.3c0-2.8,0-5.7,0-8.5c0-31.4,0-62.9,0-94.3c0-3.1,0.2-6.3-0.7-9.4
			c-0.3-0.5-0.6-0.9-1-1.3c-5.8-1.4-11.5-2.2-17.2,0.6c-1.4,2.3-0.9,4.9-0.9,7.3c0,36.1,0,72.1-0.1,108.2c0,2.6,0.8,5.4-1.5,7.5
			c-0.3,0-0.6-0.1-0.8-0.1c-0.9-1.2-0.5-2.6-0.5-3.9c0-38.7,0-77.5,0-116.2C562.5,156.8,562.2,155.4,563,154.2z"/>
		<path class="st111" d="M584.9,153.3c0.1,0.3,0.1,0.6,0.1,0.9c-1.1,3.5-4.2,2.7-6.6,2.8c-9.7,0.3-9.7-1-9.7,10
			c0,34.4,0,68.9-0.1,103.3c0,3.2,1.3,7.3-3.7,8.6l-0.1,0.4c-0.4-0.3-0.7-0.7-1.1-1c0-39.5,0.1-78.9,0.1-118.4c0-2.3-1-5.1,1.9-6.7
			C572.3,152.5,578.6,152.3,584.9,153.3z"/>
		<path class="st112" d="M563,154.2c0,41.3,0,82.6,0.1,124c-0.3,0-0.7,0-1,0c0-39.8,0-79.5,0-119.3C562,157.3,561.5,155.5,563,154.2
			z"/>
		<path class="st113" d="M295,278.1l-0.5,0.1H294c-2.1-2-1.4-4.7-1.4-7.1c-0.1-23.2,0-46.5,0-69.7c0-2.2,0.2-4.3-0.3-6.4
			c-0.6-1.6-1.4-3.1-3.4-3.1c-5.7,0-11.4-1.2-16.8,1.5c-0.5,0.2-1,0.2-1.5,0.2c-0.2-0.2-0.4-0.3-0.6-0.5c0.7-3,3-3.8,5.6-3.8
			c4.6-0.1,9.2,0,13.9,0c2.8,0,4.6,1.4,5.6,4C295,221.5,295,249.8,295,278.1z"/>
		<path class="st113" d="M270,277.2c-0.3,0-0.7,0-1,0l0,0c-0.8-1-0.5-2.2-0.5-3.4c0-25.7,0-51.5,0-77.2c0-1.1-0.3-2.3,0.5-3.4l0,0
			c0.3,0,0.6-0.1,0.9-0.1l0.3,0.3c1.5,1.7,1.2,3.7,1.2,5.7c0,24,0,47.9,0,71.9C271.4,273.2,271.8,275.4,270,277.2z"/>
		<path class="st114" d="M270,66.1c7.4-1.6,14.7-1.6,22.1,0c-7,0-14,0-21,0C270.6,66.2,270.3,66.2,270,66.1z"/>
		<path class="st107" d="M343.2,220.7c0,17.5,0,35,0,52.4c0,6.2-1.1,7.3-7.3,7.3c-3.7,0-7.3-0.1-11,0c-4.2,0.1-6-1.8-6-6
			c0.1-11,0-22,0-33c0-24.1,0-48.3,0-72.4c0-6.4,1.2-7.6,7.5-7.7c3.3-0.1,6.7-0.1,10,0c5.4,0.1,6.7,1.5,6.7,7
			C343.2,185.7,343.2,203.2,343.2,220.7z"/>
		<path class="st115" d="M340.3,158.8c-5.8,0-11.5,0-17.3,0c0-0.3-0.1-0.5-0.1-0.8c5.8,0,11.6,0,17.3,0
			C340.3,158.2,340.3,158.5,340.3,158.8z"/>
		<path class="st116" d="M147.1,278.3c-0.4,2-2.1,2.6-3.8,2.7c-5.2,0.1-10.3,0.2-15.5,0c-2.8-0.1-4.4-2.1-4.8-4.9
			c-0.1-1.1,0-2.3,0-3.5c0-35,0-70,0-105c0-2.2-0.1-4.3,0.8-6.4c7-3.6,14.3-1.9,21.5-1.2c1,0.1,1.6,1.1,1.8,2.1
			c0.4,0.5,0.3,1-0.2,1.3c-0.6,0.1-1.1,0-1.6-0.2c-0.5-0.3-1-0.5-1.5-0.7c-3.9-0.9-7.9-0.6-11.9-0.5c-4.1,0-6,2.2-6.1,6.2
			c0,2.3-0.3,4.6-0.3,7c0.1,31.4,0.1,62.8,0,94.2c0,7.8,1.3,9.1,8.9,9.2c3.1,0,6.3,0.2,9.4-0.6c0.5-0.2,1-0.5,1.5-0.7
			s1.1-0.3,1.6-0.2C147.3,277.3,147.4,277.8,147.1,278.3z"/>
		<path class="st117" d="M146.9,163.3c0-0.4,0.1-0.8,0.1-1.2c0.3,0,0.6,0.1,0.9,0.1c0.9,1.2,0.5,2.6,0.5,3.9c0,36.1,0,72.1,0,108.2
			c0,1.3,0.3,2.7-0.5,3.9c-0.3,0.1-0.6,0.1-0.9,0.1c-0.1-0.4-0.1-0.8-0.2-1.2c-1.7-1.6-1.4-3.7-1.4-5.6c0-34.2,0-68.4,0-102.6
			C145.6,167,145.3,164.9,146.9,163.3z"/>
		<path class="st118" d="M148,278.2c0-38.7,0-77.3,0-116c0.3,0,0.7,0,1,0c0,36.9,0,73.8,0,110.8C149,274.8,149.6,276.7,148,278.2z"
			/>
		<path class="st107" d="M196,278.2c-0.7,1.2-1.7,2.1-3.2,2.1c-5.6,0-11.1,0-16.7,0c-1.4,0-2.5-0.8-3.2-2c-0.4-0.5-0.4-1,0-1.5
			c0.2-0.2,0.3-0.5,0.5-0.7s0.3-0.5,0.5-0.7c0.8-1.7,0.6-3.6,0.6-5.4c0-43,0-86,0-129c0-1.8,0.1-3.7-0.5-5.5
			c-0.3-0.6-0.4-1.2-0.4-1.8c0.4-1.5,1.6-2.1,3-2.3c5.1-0.5,10.3-0.5,15.4,0c2.1,0.2,4.1,1.3,4,4.1c-0.8,2.3-0.6,4.6-0.6,6.9
			c0,42.9,0,85.7,0,128.6c0,1.8-0.2,3.7,0.5,5.4C196.3,277,196.3,277.6,196,278.2z"/>
		<path class="st119" d="M195.9,135.3c-0.3-0.6-0.6-1.2-1-1.6c-2.9-2.5-17.7-2.1-20.9,0.5c0.1,0.3,0.2,0.6,0.2,1
			c0.4,1.8,0.3,3.6,0.3,5.5c0,43,0,85.9,0,128.9c0,2.6,0.6,5.4-1.3,7.7c-0.1,0.4-0.1,0.7-0.2,1.1c-0.3,0-0.6,0-1-0.1
			c0-48.3,0-96.6,0-145c2.8-3.4,6.8-2.8,10.6-2.9c16.5-0.4,14.5,1.6,14.5,14.5c0,42.4,0,84.8,0,127.2c0,2.1,0.8,4.4-1,6.2
			c-0.1-0.4-0.1-0.7-0.2-1.1c-1.2-1.8-0.8-3.9-0.8-5.8c0-43.2,0-86.5,0-129.7C195,139.5,194.7,137.3,195.9,135.3z"/>
		<path class="st120" d="M536,83.2c-6.3,0-12.7,0-19,0c-0.7-1.1,0.1-1.7,0.9-1.8c5.5-0.4,10.9-0.5,16.4,0.1
			C534.9,81.6,535.4,82.6,536,83.2z"/>
		<path class="st3" d="M661,202.2c1.2-4.6,1-9.2,1-13.9c0-56.1,0-112.3,0-168.4c0-7.6,0.1-7.7,7.9-7.7c14.1,0,14.1,0,14.1,14.2
			c0,54.1,0,108.3,0,162.4c0,4.5-0.2,9,1,13.4l-0.1,0.1C677,203,669,202.9,661,202.2L661,202.2z"/>
		<path class="st121" d="M222.9,94.1c6.5-2.1,13.1-0.8,19.7-0.8c1.5,0,2.2,1.4,2.3,2.9s0.1,3,0.1,4.5c0,57.1,0,114.3,0,171.4
			c0,7.6-0.5,8.1-8.3,8.1c-3,0-6,0-9,0c-1.8,0-3.7,0.1-4.7-2c0.1-0.3,0.2-0.6,0.3-0.9c0.6-2.8,0.3-5.6,0.3-8.5
			c0-54.6,0-109.3,0-163.9c0-9.8,0-9.8,9.5-9.8c9,0,9,0,9,9c0,54.9,0,109.8,0,164.7c0-55.5,0-110.9,0-166.4c0-7.3,0-7.2-7.4-7.3
			c-3.6,0-7.3,0.4-10.9-0.4C223.4,94.6,223.2,94.4,222.9,94.1z"/>
		<path class="st121" d="M222.9,278.3c-1.6-1.5-1-3.4-1-5.2c0-57.7,0-115.5,0-173.2c0-1.9-0.5-4,1-5.7l0.3,0.3
			c1.3,1.6,0.8,3.5,0.8,5.3c0,57.5,0,114.9,0,172.4c0,2,0.4,4-0.7,5.9L222.9,278.3z"/>
		<path class="st3" d="M99,256.2c-2.2-2.2-5-2.1-7.8-2c-5.1,0.1-10.1,0-15.2,0c-0.5-9.5-0.2-19.1-0.1-28.6c0.3-17.5,0.3-35,0-52.6
			c-0.2-10.6-1-21.3-0.6-31.8c0.5-11.5,0.6-22.9,0.5-34.4c-0.1-8.2,0.5-16.4-0.6-24.6c-0.5-4.1,1.4-8.4,0.2-12.8
			c-0.4-1.3,1-2.2,2.2-2c5.1,0.8,10.2-0.6,15.3-0.2c4.1,0.3,6.2,1.5,6.1,6.3c-0.2,58-0.1,116-0.1,174C99,250.3,97.7,253.3,99,256.2z
			"/>
		<path class="st3" d="M614,88.2c0-23.3,0.1-46.7-0.1-70c0-3.9,1-5.5,5-5.1c3.6,0.3,7.3,0.2,11,0c4.1-0.3,5.8,1.8,6,5.6
			c0.1,1,0,2,0,3c0,45,0,90,0,135c0,7.4-0.2,7.5-7.6,7.5c-14.4,0-14.4,0-14.4-14.5C614,129.2,614,108.7,614,88.2z"/>
		<path class="st122" d="M636,168.2c0.5,2.1,1.2,4.1,1.2,6.3c-0.2,34.6-0.2,69.2-0.2,103.7c-1,0.6-1.5,2.1-3.1,1.9
			c-0.7-1.5-0.2-2.9,0.3-4.3c0.4-1.6,0.3-3.3,0.3-5c0-30.7,0-61.3,0-92c0-7.7-0.5-8.2-8.2-8.2c-3.8,0-7.7-0.1-11.5,0.1
			c-0.6,0-1.2-0.1-1.8-0.5c0-0.7,0-1.4,0-2.1c0-0.3,0-0.6,0-0.9C620.7,166.8,628.4,165.2,636,168.2L636,168.2z"/>
		<path class="st3" d="M636,168.2c-7.6-2-15.3-0.7-23-1c7.3-2.2,14.7-0.9,22-0.6C635.4,166.7,635.7,167.7,636,168.2z"/>
		<path class="st123" d="M487,117.1c3,0.8,2.9,3.3,2.9,5.6c0,50.5,0,101,0.1,151.4c0,4.5-2,6.3-6.4,6.2c-3.8-0.1-7.7-0.1-11.5,0
			c-4.4,0.1-6.3-1.8-6.3-6.3c0.2-11.2,0.1-22.3,0.1-33.5c0-38.8,0-77.6,0-116.5c0-7.4,0.5-8.1,7.9-7.9
			C478.3,116.4,482.8,115,487,117.1c-3.9,3-8.5,2-12.9,2c-5.8-0.1-6.1,0-6.2,6c0,10.5,0,21,0,31.5c0,37.5,0,74.9,0,112.4
			c0-47.1,0-94.2,0-141.4c0-1.5,0-3,0-4.5c0.1-3,1.2-4.7,4.7-4.1c2.8,0.5,5.7,0.3,8.5,0.1C483.2,118.9,485.6,119.3,487,117.1z"/>
		<path class="st3" d="M269,193.2c0,28,0,56,0,84c-1.5-1.3-1-3.1-1-4.7c0-24.9,0-49.8,0-74.7C268,196.3,267.5,194.5,269,193.2z"/>
		<path class="st114" d="M240,72.2c0.9-1.7,2.3-3,4-4C243.7,70.6,242.3,71.9,240,72.2z"/>
		<path class="st124" d="M514.1,278.1c0-62.1-0.1-124.2-0.1-186.2c0-1.9-0.1-3.7,2-4.7c0.7,0.7,1,1.7,1,2.6
			c-0.5,18.5-0.2,37-0.2,55.5c-0.1,40.5,0,81,0,121.5c0,2,0,4,0.1,6c0.2,3.4,1.7,5.3,5.2,5.5c4.2,0.2,8.3,0.5,12.4-0.6
			c0.6-0.2,1.1-0.4,1.6-0.6s1.1-0.3,1.7-0.2c0.5,0.4,0.6,0.9,0.3,1.4c-0.3,0.6-0.5,1.3-1,1.6C533.1,282.5,517.9,281.3,514.1,278.1z"
			/>
		<path class="st125" d="M539,88.2c1.6,1.5,1,3.4,1,5.2c0,59.9,0,119.7,0,179.6c0,1.8,0.6,3.7-1,5.2c-1.2-1.9-1.4-4-1.4-6.2
			c0-59.5,0-119.1,0-178.6c0-1.2,0-2.3,0.3-3.5C538.1,89.2,538.5,88.7,539,88.2z"/>
		<path class="st126" d="M538.9,89.2c0,63,0,126,0,189c-0.3,0.1-0.6,0.1-0.9,0.2c0-0.4-0.1-0.8-0.1-1.2c-1.3-1.3-1.4-3-1.4-4.7
			c0-60.3-0.2-120.6,0.1-180.9c0.1-0.6,0.3-1.3,0.6-1.8C537.7,89.1,538.2,88.9,538.9,89.2z"/>
		<path class="st127" d="M538.9,89.2c-0.3,0-0.6,0-0.9,0c-1.4,0-2.5-0.8-3.7-1.3c-3.9-0.6-7.9-0.1-11.8-0.3c-1.9-0.1-4,0.3-5.5-1.5
			c6.3-2.1,12.7-0.4,19-1c1,0.7,1.9,1.4,2.9,2c0,0.3,0.1,0.7,0.1,1C539,88.6,538.9,88.9,538.9,89.2z"/>
		<path class="st128" d="M517,86.2c6.4,0.6,12.9-1.1,19.1,1c-0.3,0.5-0.8,0.8-1.3,1.1c-5.5,1.1-11-0.3-16.5,0.9
			c-0.8,0.3-1.6,0.5-2.4,0.1c0-0.7,0-1.3,0-2C516.3,86.8,516.6,86.5,517,86.2z"/>
		<path class="st129" d="M685,278.2c-3.2,3.6-7.5,2.1-11.3,2.2c-13.4,0.3-12.8,0.5-12.8-12.7c0.1-20.8,0.1-41.6,0.1-62.4
			c0.3-0.1,0.6-0.1,0.9-0.2c0.5,0.4,0.9,0.9,1.1,1.5c0.8,7.1,0.3,14.2,0.4,21.3c0.1,13.9,0,27.8,0,41.8c0,2-0.2,4,0.5,5.9
			c2.3,3.1,5.6,2,8.6,2.1c2.8,0.1,5.6,0.4,8.3-0.6c1.1-0.4,1.5-1.3,1.6-2.4c0.1-20.8,0-41.6,0.1-62.3c0-2.4-0.6-5,1.3-7.1
			c1.9-0.1,1.6,1.3,1.6,2.4c0,23.1,0.1,46.1,0,69.2C685.5,277.3,685.2,277.7,685,278.2z"/>
		<path class="st130" d="M685,278.2c0-22.6,0-45.2,0-67.8c0-1.7,0.7-3.7-1-5.1c-0.4,0.3-0.8,0.4-1.3,0.3c-0.9-0.4-1.5-1-2.3-1.5
			c-4.9-0.8-9.8-0.4-14.6-0.2c-0.4,0.2-0.8,0.4-1.2,0.6c-0.8,0.4-1.6,0.9-2.6,0.8c-0.3,0-0.6,0.1-0.9,0.1c0-1,0-2,0-3
			c8-1.7,15.9-1.7,23.9,0c0.3,1,0.7,2,1,3c0,24.3,0,48.6,0,72.9l-0.5,0.1L685,278.2z"/>
		<path class="st107" d="M635.1,277.2c-0.4,1-0.8,2-1.1,2.9c-5.3,0.1-10.7,0-16,0.2c-4.1,0.1-5.7-2-5.9-5.8c0-1,0-2,0-3
			c0-31.3,0-62.6,0-94c0-2.5,0.2-5,1-7.4c0.3,0,0.6,0,1-0.1c1.7,2.8,1.5,6,1.5,9.2c0,30.4,0,60.9,0,91.3c0-30.1,0-60.2,0-90.4
			c0-2.3,0-4.7-0.2-7c0.1-0.6,0.4-1.2,0.9-1.6c5.2-1.7,10.6-1,15.9-0.5c0.6,0.2,1.1,0.6,1.5,1.1c1.3,2.5,0.9,5.2,0.9,7.8
			c0.1,31.8-0.1,63.6,0.1,95.4C634.7,276.1,634.9,276.7,635.1,277.2z"/>
		<path class="st131" d="M97,257.2c3.5,3.2,1.9,7.5,1.9,11.3c0.2,11.9,0.1,12-11.9,11.8c-3.7-0.1-8,1.9-11.1-2
			c0.2-0.2,0.4-0.4,0.5-0.6c1-0.5,2-0.6,3.1-0.4c4.9,0.3,9.9,1.3,14.7-0.6c0.9-3.7,0-7.4,0.3-11.2c0.2-2.4,0-4.9,1.3-7.1
			C96.1,257.9,96.5,257.5,97,257.2z"/>
		<path class="st132" d="M97,257.2c0,0.3,0,0.7,0,1c-4.6,1-9.2,0.3-13.8,0.5c-5,0.2-5.4,0.8-5.7,5.8c-0.3,4.5,1.3,9.2-1.3,13.5
			l-0.2,0.3c-2.1-6.3-0.8-12.8-0.6-19.1c0-1.4,1.2-2.7,2.6-2.7C84.3,256.3,90.7,255,97,257.2z"/>
		<path class="st133" d="M45,278.4c-0.2,1.5,0.4,3.7-2.2,3.6c-2.5-0.1-1.9-2.3-1.9-3.9c0-1.5-0.7-3.8,1.9-3.7
			C45.1,274.6,44.9,276.8,45,278.4z"/>
		<path class="st134" d="M31.9,174.4c0.3,0.3,0.6,0.5,1,0.8c1.2,1.8,0.8,3.9,0.5,5.8c-0.3,2.4-1.9,3.3-4.3,2.1l0,0
			c-1.1-2-0.5-4.2-0.5-6.3C28.5,174.7,30,174.2,31.9,174.4z"/>
		<path class="st135" d="M45.1,175.2c0,0.7,0,1.3,0,2c1,1.4,1,2.7-0.1,4c-0.7,1.2-1.9,1-3,1.1c-2.9-0.7-0.8-3-1.5-4.4
			c0.6-1.9,1.6-3.4,3.9-3.1C44.6,174.9,44.8,175,45.1,175.2z"/>
		<path class="st136" d="M38,175.2c1.6,1.9,1.1,4,0.5,6c0,0.1-1.4,0-1.7-0.4C34.8,178.5,37.1,177,38,175.2L38,175.2z"/>
		<path class="st137" d="M40,173.2c0.4-0.6,0.7-1.2,1.1-1.9c1.8,1.3,4.3,0.1,5.9,1.8c0,0.3,0,0.7,0,1c-0.4,0.8-1.1,1-1.9,1l-0.1,0.1
			c-1-1.3-2.9,0.4-3.9-1.1C40.7,173.9,40.3,173.5,40,173.2z"/>
		<path class="st63" d="M31.9,174.4c-5,1.6-2.2,5.7-2.8,8.7c-1.7-3.5-2.1-6.9,0.9-9.9c0.7-0.6,1.3-0.6,2,0
			C32,173.6,31.9,174,31.9,174.4z"/>
		<path class="st63" d="M29,183.1c6.3-0.2,3.3-4.9,3.8-7.9c2.1,2.3,1.5,5.1,0.6,7.4C32.7,184.6,30.7,184.9,29,183.1z"/>
		<path class="st97" d="M41,177.2c0.1,1.7-0.6,3.6,1,5.1c-2.4-1-2.6-2.4-1-7.1C41.6,175.8,41.6,176.5,41,177.2z"/>
		<path class="st58" d="M45,181.2c0-1.3,0-2.7,0.1-4c0.8,0.2,2.2-0.4,2.2,1C47.2,179.6,47,181.1,45,181.2z"/>
		<path class="st63" d="M25.9,183.3c-0.3-0.1-0.6-0.1-0.9-0.1c0.3-2.7-1-5.5,0.9-8C26,177.9,26,180.6,25.9,183.3z"/>
		<path class="st69" d="M41,177.2c0-0.7-0.1-1.4-0.1-2.1c0-0.3,0-0.6,0.1-0.9c1.4,0.2,3-0.6,3.9,1.1C43.2,175.1,42.4,176.6,41,177.2
			z"/>
		<path class="st138" d="M46,185.2c-2-0.3-4.2,0.9-5.9-1C42,184.5,44.2,183.5,46,185.2z"/>
		<path class="st139" d="M32,173.2c-0.7,0-1.3,0-2,0c0.9-2,2.7-0.6,4-1l0,0C33.5,173,32.8,173.2,32,173.2z"/>
		<path class="st140" d="M426.9,306.3c-3-1-4.9-2.9-3.3-5.9c1.6-2.9,4.5-3.8,7.8-2.5c0.8,0.3,1.5,0.9,1.3,1.9c-0.1,0.4-0.5,1-0.9,1
			c-1.4,0-3.3-0.9-3.4,1.5c-0.1,2,2.2,1.6,3.3,2.5c0.5,0.4,0.9,1,1.3,1.5c-0.2,0.1-0.3,0.3-0.5,0.4c-1.8,0.8-3.3-0.7-5.1-0.4
			C427.3,306.3,427.1,306.3,426.9,306.3z"/>
		<path class="st141" d="M433,306.2c1.7,1.4,0.7,3.3,0.9,5l0,0c-2.3,1.3-4.6,2.6-7.5,2c-1.4-0.3-2.8-0.9-2.8-2.4s1.4-1.6,2.6-1.3
			c1.1,0.3,2.1,0.2,2.3-1c0.3-1.3-1.2-1.3-1.8-2.1l0.2-0.3c1.5-0.8,2.9-0.5,3.9,0.8c1.2,1.5,1.3-0.1,1.9-0.5L433,306.2z"/>
		<path class="st86" d="M18,83.2c-5.9-0.2-6.3-0.7-4-5c0.7,0.8,1.4,0.7,2.1,0c0.8,0.7,1.5,2.1,2.9,1c0.6,0.5,0.7,1.1,0.6,1.9
			C19.4,82,18.6,82.6,18,83.2z"/>
		<path class="st142" d="M27,83.2c-0.3,0-0.6,0-0.9,0c0.2-3.4-1-6.9,0.8-10.1c1.3,0.9,1.5,2.4,2,3.7c0.4,1.3,0.6,2.7,0.7,4.1
			c0,0.5-0.2,0.9-0.5,1.3C28.6,82.9,27.8,83.2,27,83.2z"/>
		<path class="st143" d="M19,81.2c0-0.7,0-1.3,0-2c0.5-0.7,1-2.1,2-0.8c0.9,1.2,2.3,2.7,1.4,4.4c-0.8,1.6-2.2,1.8-3.6,0.5
			C19.1,82.6,19.4,81.9,19,81.2z"/>
		<path class="st143" d="M16.1,78.2c-0.2,1.1,0.4,3-0.6,3.1c-1.8,0.1-1.2-1.8-1.4-3c0-1.3,0.1-2.6,0.1-3.9c0.3-0.1,0.6-0.1,0.8-0.2
			c1.1,0.8,1,2,1.1,3.1C16,77.6,16,77.9,16.1,78.2z"/>
		<path class="st144" d="M19,81.2c0.7-0.1,1.7-0.9,1.9,0.4s-1,1.5-1.9,1.7c-0.3,0-0.6,0-0.9-0.1C18,82.4,18.2,81.6,19,81.2z"/>
		<path class="st145" d="M27.9,77.1c-1.4-1.1-0.8-2.7-1.1-4.1c0.1-0.3,0.1-0.6,0.1-0.9c0.3,0.3,0.7,0.7,1,1c0.4,0.3,0.6,0.8,0.8,1.3
			C29,75.5,28.9,76.5,27.9,77.1z"/>
		<path class="st146" d="M46,36.1c-1.6,0-3.3,0-4.9,0c-0.6-0.6-0.7-1.2-0.4-2c3.5-1.9,7-3.9,4.9-8.9c0.2-1,0.6-1.8,1.6-2.3
			c0.6,0.8,1.3,1.5,1.9,2.3C49.6,29.4,48.3,32.9,46,36.1z"/>
		<path class="st94" d="M36,24.3c0-0.4,0-0.7,0-1.1c2,0,3-1.7,4.7-2.3c2.4-0.9,4.7-1.5,6.3,1.4c-0.5,0.5-1.1,0.8-1.8,0.9
			c-2-0.3-3.7,0.4-5.5,1.4C38.6,25.1,37.1,26.7,36,24.3z"/>
		<path class="st2" d="M49,15.2c1.8,1.8,0.7,4,1,6C48.2,19.4,49.3,17.2,49,15.2z"/>
		<path class="st147" d="M45,22.2c0.6,0,1.3,0,1.9,0C47,22.5,47,22.7,47,23c-0.1,0.8-0.2,1.7-1.1,2.2c-0.7-0.1-1.2-0.5-1.5-1.2
			C44.3,23.3,44.4,22.7,45,22.2z"/>
		<path class="st148" d="M330.1,308.5c-0.2,1.9,0.2,4.5-2.7,4.4c-2.7-0.1-2.5-2.6-2.5-4.6c0-1.3,0-2.7,0-4c0-7,2.1-8.6,9.2-7.2
			c1,0.2,2.1,0.3,2.2,1.5c0.1,1.1-0.8,1.5-1.5,2.3s-4.7,0.3-1.8,3.2c-0.8,0.9-1.8,1.1-2.9,0.9c-1.1-0.4-1.7-1.1-1.7-2.3
			c0.2-1.8,1.1-2.9,2.8-3.5c-1.2-0.1-2.2,0.3-3,1.3c-1,1.1-0.5,2.4-0.4,3.7c0.6,1.2-1.1,3.3,1.5,3.7
			C329.7,307.9,330,308.1,330.1,308.5z"/>
		<path class="st149" d="M329.9,304.3c1-0.1,2.1-0.1,3.1-0.2c1.8,2.4,1.8,2.4-2.9,4.4c-0.1-0.2-0.1-0.4-0.2-0.6
			c-1.1-0.6-1.5-1.8-0.3-2C332.1,305.6,328.9,304.6,329.9,304.3z"/>
		<path class="st150" d="M573.1,299.3c1.4-0.1,2.8-0.4,3.9,0.9c-0.1,1,0.2,2.4-1.2,2.7c-1.5,0.4-1.8-0.8-2.1-1.9
			C573.5,300.5,573.3,299.9,573.1,299.3z"/>
		<path class="st151" d="M578.3,311.1c-0.4-0.6-0.7-1.1-1.1-1.7c1.6-0.6,3.1-3.1,4.7-0.1C581.2,310.9,580,311.5,578.3,311.1z"/>
		<path class="st152" d="M571.4,309.6c-0.1,0.7-0.3,1.3-1.1,1.4s-1.2-0.3-1.2-1.1c0-0.7,0.1-1.4,1-1.4
			C570.7,308.5,571.2,308.9,571.4,309.6z"/>
		<path class="st153" d="M567.9,299.4c0.1,0.2,0.2,0.5,0.3,0.7c-0.1,1.4-0.2,2.7-0.5,5C566.8,302.5,566.3,300.9,567.9,299.4z"/>
		<path class="st154" d="M38,232.2c-1.4-0.8-2.4-0.5-3,1c-2.3,1.5-4.7,3.7-7,0c-0.3-0.2-0.4-0.5-0.4-0.7c0-0.3,0.1-0.4,0.2-0.4
			c0.4-0.2,0.8-0.4,1.2-0.4c1,0,2.1,0.2,2.5-1.1c0.2-0.8,0.4-1.6,0.5-2.4c0.2-1,0-1.9-0.8-2.6c-0.6-0.5-1.3-0.7-2-0.7
			c-0.4,0-0.8-0.1-1.1-0.2c-0.6-0.2-1-0.5-1.4-1c-0.4-0.4-0.7-1-0.7-1.6c0.3-0.3,0.6-0.7,0.9-1c2.7-2.3,5.3-1.3,8,0
			c0.3,1.8,1.5,2,3,1.8c0.4,0.3,0.6,0.7,0.7,1.2c-1,2.3-2.2,4.5,0,6.8C38.5,231.4,38.4,231.8,38,232.2z"/>
		<path class="st155" d="M45.9,235.2c-1.7-0.2-3.5,0.6-4.9-1c-0.5-1,0-1.7,0.6-2.4c0.7-0.6,1.4-1,2.2-1.5c3.2-1.7,0.8-4.7,1.7-7
			c0.3-0.6,0.9-1.1,1.6-1.2c0.6,0.7,1.3,1.4,1.9,2.2c1.5,3.7,0.2,6.9-2,9.9C46.6,234.5,46.3,234.8,45.9,235.2z"/>
		<path class="st156" d="M42,232.3c-0.3,0.6-0.7,1.3-1,1.9c-0.7-0.3-1.3-0.7-2-1c-0.3-0.3-0.7-0.7-1-1c0-0.3,0-0.7,0-1
			c-0.3-2.3-0.1-4.7,0-7c0-0.4-0.1-0.8-0.1-1.2c0-0.3,0.1-0.5,0.1-0.8c2.7-2.5,5.6-3.7,9-1c0,0.3,0.1,0.6,0.1,0.9
			c-0.4,0.4-0.7,0.8-1.1,1.1c-1.6,0.2-3.3,0.1-4.1,1.9c-0.8,1.7-0.6,3.5-0.2,5.3C42,231,42,231.6,42,232.3z"/>
		<path class="st101" d="M47,234.2c1.1-3.2,2.6-6.3,2-9.9C50.7,228,50.6,231.5,47,234.2z"/>
		<path class="st101" d="M47,221.2c-3.2-1.7-6.1-0.3-9,1C41.4,218.3,43.4,218.1,47,221.2z"/>
		<path class="st157" d="M26,222.2c0.3,0.3,0.7,0.7,1,1c0.1,3,1.4,6.2-1,9h-0.1c-1.8-2.5-0.5-5.4-1-8C25,223.4,25.2,222.6,26,222.2z
			"/>
		<path class="st158" d="M34.9,221.2c-2.7-0.4-5.3-1.2-8,0C29.6,217.9,32.3,218.8,34.9,221.2z"/>
		<path class="st159" d="M183.3,310.7c-0.2-3.3-0.5-6.6-0.7-9.9c0-0.3,0.6-0.9,0.9-0.9c1,0.1,1.6,0.9,1.3,1.7c-1.2,3-0.3,6-0.1,9
			C184.2,310.6,183.8,310.6,183.3,310.7z"/>
		<path class="st160" d="M29,82.1c0-0.3-0.1-0.6-0.1-0.9c-0.8-2.1-0.3-4.4-0.3-6.6c1.3-2.1,2.7-2.8,4.4-0.4l0,0c0.8,2.3,0.8,4.7,0,7
			C31.7,81.8,30.5,82.3,29,82.1z"/>
		<path class="st161" d="M38,74.2c0.2,0.2,0.5,0.5,0.6,0.7c0.6,1.9,0.9,3.8-0.2,5.6c-0.3,0.5-1.2,0.2-1.7-0.4
			C35.1,77.7,36.1,75.9,38,74.2L38,74.2z"/>
		<path class="st162" d="M41,71.2c2.3-1.6,4.4-1.5,6,1c0.2,0.7,0.8,1.4,0.2,2.1c-0.7,0.8-1.4,0.1-2.1-0.2c-1.3-0.2-2.3-0.9-3.1-1.9
			C41.7,71.9,41.3,71.5,41,71.2z"/>
		<path class="st78" d="M42,72.2c1.5-0.1,2.8,0.1,3.1,1.9l-0.2,0.1c-2.8,1.4-2,4.9-3.8,6.9c-0.4,0-0.7,0-1.1,0
			C40,78,39.5,74.8,42,72.2z"/>
		<path class="st163" d="M33,81.2c0-2.3,0-4.7,0-7C34.5,76.5,34.7,78.9,33,81.2z"/>
		<path class="st163" d="M33,74.2c-1.3-0.9-2.6-1-4,0c-0.3,0.5-0.6,0.5-1,0c0-0.3,0-0.7,0-1C29.9,72.6,32,70.7,33,74.2z"/>
		<path class="st164" d="M283,302.1c0,2-0.1,3.9,0,5.9c0.1,2.3-0.9,3.3-3.1,3.3l0,0c0.1-2.8,0.2-5.6,0.3-8.4
			C281,302.2,281.8,301.5,283,302.1z"/>
		<path class="st165" d="M283,302.1c-0.9,0.4-1.7,1.2-2.8,0.8c0.1-1.4-1-3.3,1.4-3.5C283.5,299.3,283.7,300.6,283,302.1z"/>
		<path class="st166" d="M16,221.2c1.2,0.2,2.9-0.3,3.3,1.4c0.2,0.9-0.6,1.5-1.5,1.5C15.7,224,16.1,222.4,16,221.2L16,221.2z"/>
		<path class="st154" d="M36,133.2c-1,0.7-2,1.3-3,2c0-1,0-2,0-3c0-0.2-0.1-0.4-0.1-0.7c-0.6-1.8,0.6-4-1.2-5.6
			c-0.9-0.5-1.9-0.9-2.6-1.7c-0.3,0-0.7,0-1,0c-0.7-0.7-0.6-1.3,0-2c0-0.4,0-0.7,0-1.1c2.3-2.2,4.6-0.3,7,0.1c1,2.8,2.6,2.4,4.3,0.8
			c2.3-2.1,4.6-2.3,6.9,0.1c0,0.8-0.4,1.5-1.1,2l-0.1,0.2c-0.7,0.6-1.4,1-2.2,1.4c-2.5,2.3-1.4,4.6,0.1,6.8c0.1,0.2,0.1,0.4,0.2,0.6
			c0,0.3,0,0.7,0,1c-0.5,0.7-1.5,0.3-2,1c-0.3,0-0.7,0-1,0c0-1.5-1.4-1.9-2-3c0.6-1.2-0.3-2.1-0.5-3.3c-0.4,1.2,1.1,2.1,0.5,3.3
			C37.2,132.2,36.4,132.4,36,133.2z"/>
		<path class="st167" d="M20,126.2c-0.9-1.2-0.8-3.4-3-3.3c-0.9,0-1.7,0.1-1.7-1.1c0-1.3,1.1-1.4,2.1-1.5c2.3-0.2,3.7,1.2,4.8,2.8
			c1.3,1.7,0,3-1.1,4.2C20.4,127.1,20.1,126.8,20,126.2z"/>
		<path class="st168" d="M20,126.2c0.4,0.4,0.7,0.7,1.1,1.1c0,0.3,0,0.6,0,0.9c-0.4,2.4-1.8,1.3-2.7,0.6c-1.8-1.2,0.4-1.7,0.7-2.5
			C19.3,126.2,19.6,126.2,20,126.2z"/>
		<path class="st154" d="M27.9,127.1c0,0.7,0,1.5,0,2.2c-1.1,1.5,0.2,3.4-0.9,4.8h-0.5H26c0-2.7,0-5.3-0.1-8
			C27.1,125.6,27.4,126.6,27.9,127.1z"/>
		<path class="st145" d="M27.9,127.1c-0.6-0.3-1.3-0.6-1.9-0.9c-0.1-1.7,0.2-3.2,2-4c0,0.7,0,1.3,0,2C28,125.2,28,126.2,27.9,127.1z
			"/>
		<path class="st169" d="M23,183.2c-0.3,0.3-0.6,0.5-0.9,0.8l-0.5,0.1h-0.5c-2-2,0.2-3.3,0.8-4.8C23.4,180.2,22.9,181.8,23,183.2z"
			/>
		<path class="st70" d="M21.1,172.1c-1,5.5-3.4-0.9-4.1,0C17.7,172.1,19.4,172.1,21.1,172.1L21.1,172.1z"/>
		<path class="st170" d="M478,306.2c1.3-2.3,0.7-5.3,2.8-7.2c0.2,0.1,0.4,0.2,0.6,0.3c0.8,1.1,1.6,2.1,3.1,0.9
			c0.2-0.1,0.4-0.1,0.6-0.2c1.7,3.4,0.8,7,0.8,10.5c0,2-1.3,3.2-3,0.7c-0.3-2.7-1.9-2.9-4-2C478,308.5,477.3,307.6,478,306.2z"/>
		<path class="st171" d="M478,306.2c0.4,1,0.7,2,1.1,2.9c-0.1,0.2-0.3,0.3-0.4,0.5c-1,0.4-1.7,1.2-2.6,1.5c-0.3,0-0.7,0-1,0
			c-2-1.8-3.2-4.1-4.4-6.4c0.1-2.2,1.1-3.3,3.4-2.6C475.1,303.8,475.4,306.2,478,306.2z"/>
		<path class="st101" d="M471.1,305.4c2.9,0.9,3.1,3.5,3.8,5.8c-1,0-1.9,0-2.9,0.1c-0.2-0.3-0.5-0.7-0.7-1c-0.1-0.7-0.3-1.4-0.4-2.2
			C470.4,307.2,470.2,306.2,471.1,305.4z"/>
		<path class="st172" d="M479.1,309.2c1.2-0.6,1.3-3.2,3.1-2.3c1.7,0.8,0.6,2.9,0.8,4.4c-1.3-2.2-2.7-0.8-4.1-0.1
			c-0.5-0.6-0.6-1.2-0.1-1.9L479.1,309.2z"/>
		<path class="st173" d="M478.8,309.3c0,0.6,0.1,1.2,0.1,1.9c-0.9,0.8-1.9,1.2-2.9,0.1C476.3,309.6,476.5,307.9,478.8,309.3z"/>
		<path class="st170" d="M480.9,299c1.2-1.3,2.7-0.9,4.1-0.8c0.1,0.6,0.1,1.2,0.2,1.8c-0.1,0.1-0.3,0.2-0.4,0.3
			c-1.4,0.4-2.5-0.1-3.6-1L480.9,299z"/>
		<path class="st174" d="M45,22.2c0,0.7,0,1.3,0,2c-4.8,2-3,6.5-4,10c0,0.6,0,1.3,0,1.9h-0.5H40c-1.7-2.4-3.2-4.3-6-0.9
			c-1.5,1.8-4.1,0.7-6.1,1c-0.3-0.3-0.6-0.7-0.9-1c-0.6-1.2-0.1-2.2,0.6-3.1c0.4-0.3,0.8-0.4,1.2-0.5c1.2-0.1,2.4,0.5,3.4-0.7
			c0.7-1.2,0.5-2.4,0.2-3.7c-0.3-0.3-0.6-0.5-0.9-0.7c-0.4-0.1-0.7-0.2-1.1-0.3c-0.6-0.2-1.1-0.4-1.6-0.8c-0.8-0.6-1.5-1.3-1.8-2.3
			c0-0.3,0.1-0.6,0.1-0.9c3.1,0.3,6.6-1.3,9,2c1.9,0.9,2.9-0.8,4.1-1.6C41.7,21.7,43.3,21,45,22.2z"/>
		<path class="st175" d="M15,29.2c-0.3,0-0.7,0-1,0c-1.6-2.5-1.4-5,0-7.3c1.2-2,3.4-1.7,5.4-1.6c1.4,0.1,2.7,0.8,2.9,2.2
			c0.2,1.5-1.3,1.6-2.4,1.7c-1.7,0.2-2.7,1.1-2.8,2.8c-0.2,0.1-0.3,0.2-0.5,0.3c-0.8-0.2-1-0.8-1-1.5c0,0.1,0-0.1,0-0.1s0,0.3,0,0.4
			C15.4,27.2,15.7,28.3,15,29.2z"/>
		<path class="st168" d="M19,33.2c2.5-3.9-0.3-4-3-4.1c-0.5-1,0.2-1.5,1-1.9l0.1-0.2c1,0.1,2,0.1,3,0.2c4.9,3,5.1,4.3,1,8.9l0,0
			c-2.3,0.7-4.7,0.8-7,0l0,0C13.9,32.3,17.6,34.6,19,33.2L19,33.2z"/>
		<path class="st79" d="M21,36.2c1.8-3.2,2.9-6.4-1-8.9V27c0.7-0.4,1.3-0.4,1.9,0.2c4.3,1.8,2-3.4,4.1-4c2.2,3.7,1.8,7.3-0.1,11
			c-1.1-0.5-2-0.7-2,0.9C23,35.5,22,35.9,21,36.2z"/>
		<path class="st176" d="M26,34.2c0-3.7,0.1-7.3,0.1-11c0.3,0,0.6-0.1,0.8-0.1c1.3,0.1,2,0.7,2.1,2c0,0.2,0.1,0.5,0.1,0.7
			c0.3,2.2,0.6,4.4-1.1,6.3c-0.4,1-0.7,2.1-1.1,3.1C26.6,34.9,26.3,34.6,26,34.2z"/>
		<path class="st2" d="M22,27.2c-0.6-0.1-1.3-0.1-1.9-0.2c0.3-1.9,1.7-2.3,3-1.4C23.7,26.1,22.6,26.9,22,27.2z"/>
		<path class="st177" d="M140,306.2c1.2-2.2,2.5-4.4,2.2-7.1c0.3,0,0.6,0.1,0.8,0.2C142.8,301.9,143.7,305,140,306.2z"/>
		<path class="st178" d="M133.1,311.1c0.2-1.8-1.3-4.2,1.8-4.9c0.6,0.7,1.3,1.3,1.9,2c-1,0.9-2.3,1.5-2.8,2.8
			C133.8,311.1,133.5,311.1,133.1,311.1z"/>
		<path class="st179" d="M134.1,311.1c-0.3-2.2,0.7-3.1,2.8-2.8C137,310.2,135.4,310.5,134.1,311.1z"/>
		<path class="st180" d="M144,308.2c0,1,0,2,0,3c-0.8-0.1-1.6-0.3-1.7-1.3C142.1,308.6,143,308.4,144,308.2z"/>
		<path class="st181" d="M270,277.2c0.1-27.9,0.1-55.8,0.2-83.7c0.3-0.1,0.5-0.1,0.8-0.1c2.1,2,1.4,4.7,1.4,7.1
			c0.1,23.1,0,46.2,0.1,69.2c0,2.3-0.4,4.7,0.9,6.8c5.4,2.3,11,1,16.5,0.8c1-0.5,1.6-1.3,1.7-2.5c0.2-24.4,0-48.9,0.1-73.3
			c0-2.3-0.2-4.7,0.4-6.9c0.2-0.6,0.6-1.1,1.2-1.5c1.3,1.6,0.8,3.5,0.8,5.3c0,26.6,0,53.2,0,79.8c-3,3.5-7.1,2-10.8,2.2
			c-3,0.2-6,0.1-9,0C272.1,280.3,270.9,278.9,270,277.2z"/>
		<path class="st182" d="M87,310.2c0-0.3,0-0.7,0-1c0-1,0-2-0.1-3c0.8-0.1,1.6-0.3,2.1-1.1c3.8,3.5,3.4,4.8-2,7
			C87,311.5,87,310.8,87,310.2z"/>
		<path class="st183" d="M87,306.2c-1.7,0.1-3.2-0.2-4-1.9c-0.2-1.3-1.9-2.9,0.1-3.7c1.8-0.8,1.8,1.2,2.1,2.4
			C85.6,304.2,87.1,304.8,87,306.2z"/>
		<path class="st184" d="M15.2,134.9c2.1-0.9,3.3-0.8,4.7-0.4C18.7,135.8,17.4,135,15.2,134.9z"/>
		<path class="st185" d="M378.2,306.9c-0.1-0.2-0.2-0.5-0.3-0.7c0.7-2.8,2.6-1.4,4.1-1.1c0.1,0.1,0.3,0.2,0.4,0.3
			c1.1,1.7,2.7,3.9,0.3,5c-2.9,1.4-0.8-3-2.8-3.3C379.4,307.1,378.8,307,378.2,306.9z"/>
		<path class="st186" d="M382.1,305.1c-1.4,0.2-3-0.4-4.1,1.1c-1.4,0-2.3-0.9-3.1-1.9c0-0.4,0.1-0.7,0.1-1.1c0.8-0.6,1-1.8,1.9-2.3
			c0.4-0.1,0.8,0,1.1,0.3c0.1,2.4,1.8,3.1,3.8,3.2C381.9,304.6,382,304.9,382.1,305.1z"/>
		<path class="st187" d="M42,124.2c1,0,1.9,0.1,2.9,0.1c-0.3,3,1.6,6.5-1.9,8.9l0,0C39.8,130.2,39.6,127.9,42,124.2z"/>
		<path class="st188" d="M45,124.1c0-0.9,0.3-1.6,1.1-2c0.9,1.1,1.9,2.1,2.8,3.2c0,1.3,0,2.5,0,3.8C47.9,127.1,47.1,125.1,45,124.1z
			"/>
		<path class="st189" d="M41,135.2c0.4-0.8,1.2-0.9,2-1c1.7,0.2,2.4-1.4,4.1-2.4C46.3,135.9,43.4,135.1,41,135.2z"/>
		<path class="st190" d="M585.1,301.3c0,0.3-0.1,0.6-0.2,0.9c-1,0.6-1.8,0.6-2.2-0.8c-0.3-1,0.1-1.7,1-1.8
			C584.8,299.5,584.9,300.5,585.1,301.3z"/>
		<path class="st191" d="M41.1,81.1c0.7-2.6-2.4-7.3,3.8-6.9c0.1,2.7,0.7,5.5-0.9,8C43,81.8,42,81.5,41.1,81.1z"/>
		<path class="st192" d="M668,298.2c1.5-0.9,3.1-1,4.7-0.9c1.7,0.1,4.1-0.7,4.7,1.4c0.7,2.3-1.8,2.2-3.1,2.9
			c-1.4,0.8-1.3,2.1-1.2,3.4c-3.2,0.4-3.2,0.4-4.7-4.6c-0.3-0.4-0.5-0.7-0.7-1.1C667.6,298.9,667.6,298.5,668,298.2z"/>
		<path class="st193" d="M669.1,299.3c1.8,0.1,1.6,1.1,1.2,2.4c-0.6,2.3,0.3,3.5,2.8,3.3c0.6,0.1,1.2,0.1,1.9,0.2
			c0,0.3,0,0.6-0.1,0.9c-3,0.3-4.4,2.4-5.4,5.2C667.5,307.3,667.3,303.4,669.1,299.3z"/>
		<path class="st83" d="M668,298.2c0,0.3,0.1,0.7,0.1,1c-0.1,3.3,2,6.9-1.1,9.9c0-3.7,0-7.3,0-11C667.4,298.2,667.7,298.2,668,298.2
			z"/>
		<path class="st194" d="M471.1,305.4c-0.1,0.9-0.1,1.8-0.2,2.8c-1.8-3.1-0.7-6.4-0.8-9.6c3.1-0.7,4.2,0.8,3.9,3.7
			C472.7,303,470.9,303.3,471.1,305.4z"/>
		<path class="st195" d="M625,311.2c-0.3,0.9-1.1,0.9-1.8,0.8c-1.9-3.2-1.5-6.5-0.3-9.8h0.2c3.4,1,1.2,3.9,2,5.8
			C625.4,309.1,625.3,310.1,625,311.2z"/>
		<path class="st62" d="M625,311.2c-1.1-0.7,0-1.4,0-2.1c-0.2-2.7-1.6-5.6,0.9-8l0.4,0.2C625.2,304.6,626.9,308.1,625,311.2z"/>
		<path class="st196" d="M622.9,302.2c0.1,3.3,0.2,6.5,0.3,9.8c-0.4,0.1-0.8,0.1-1.2,0.2l0,0c-0.8-3.3-0.7-6.6,0-10
			C622.3,302.2,622.6,302.2,622.9,302.2z"/>
		<path class="st197" d="M128.1,299.2c1.3-0.9,2.5-0.3,3.8,0.1c0,0.9,0.1,1.9,0.1,2.8c-1.5,1.5-2.9,2.2-4.3-0.1
			C127.6,301.1,127.2,300.1,128.1,299.2z"/>
		<path class="st178" d="M128.1,302.1c1.3,1,2.6,0.2,3.9,0c-0.4,2.2-1,4.1-3.9,3C127.3,304.1,127.3,303.1,128.1,302.1z"/>
		<path class="st198" d="M128.1,302.1c0,1,0,2-0.1,3c-0.1,1.1,0.1,2.3-1.1,3c0.6-3-1-6.2,1.1-9C128.1,300.2,128.1,301.2,128.1,302.1
			z"/>
		<path class="st199" d="M378,301.2c-0.4,0-0.8,0-1.1,0.1c-1,0.4-1.3-0.4-1.7-0.9c0-0.3,0-0.6,0.1-0.9c2.4-0.1,4.6-2.1,7.7-0.5
			C381,299.7,378.6,298.9,378,301.2z"/>
		<path class="st200" d="M241,306.2c0,1.3-0.1,2.6-0.1,3.8c-0.3,0.1-0.6,0.2-0.8,0.3c-1.3-0.4-2.1-1.6-3.2-2.3
			c-0.7-0.5-1.1-1.4-1.9-1.7c-1-1.2-1.9-2.1-3.1,0.1c-0.8,1.6-0.4,3.6-1.9,4.8c0.5-2.1-0.5-3.7-2-5.1c1-1.7,1.9-3.4,2.9-5
			c0.9,0.5,1.7,1.2,2.7,0.1c0.4-0.5,0.9-0.9,1.5-1.1c1.3,0.9,0.7,3.8,2.8,3.6c1.8-0.2,0.9-2.2,1.2-3.3c0.2-0.1,0.5-0.2,0.8-0.2
			C243.3,301.7,240.3,304.2,241,306.2z"/>
		<path class="st201" d="M235.1,300.1c-0.1,0.7-0.1,1.3-0.2,2c-3.2,1.3-3.9,0.1-2.9-2.9C233.7,297.4,234.3,299,235.1,300.1z"/>
		<path class="st202" d="M232,299.2c-0.2,2.1,0.6,3.2,2.9,2.9c-1.8,1.3-3.7,3.2-4-1.1C231,300.3,231.2,299.6,232,299.2z"/>
		<path class="st203" d="M226,310.2c-0.3,0-0.6-0.1-0.9-0.1c-0.7-2.9-1.5-5.7-2-8.6c-0.3-1.4-0.5-3.4,1.4-3.6c2-0.2,2.8,1.3,2.4,3.3
			c-1.3-0.6-3-2-2.3,1.3C225.2,305.1,226.3,307.6,226,310.2z"/>
		<path class="st204" d="M625.8,301.1c-1.6,2.5-0.5,5.4-0.9,8c-2.2-1.9,0.2-5-1.9-6.9c-0.4-0.9-1-1.9,0.2-2.5
			C624.7,299,625.3,300,625.8,301.1z"/>
		<path class="st205" d="M621.9,302.2c0,3.3,0,6.6,0,10c-2-3.2-0.5-6.7-1-10C621.3,302.2,621.6,302.2,621.9,302.2z"/>
		<path class="st206" d="M29.1,124.2c1.3,0,2.5,0,3.8,0c1.1,2.6,0.9,5.3,0.1,7.9l0,0c-2.5,1-3.8,0.1-4-2.5
			C28.9,127.9,29,126.1,29.1,124.2z"/>
		<path class="st70" d="M27,134.2c0.1-1.6-0.7-3.5,0.9-4.8C27.8,131,28.6,132.8,27,134.2z"/>
		<path class="st207" d="M237,307.2c2,0.1,2.9,1.3,3.1,3.1c-2.3,3.3-3.4,1.8-4.2-1C236,308.4,236.1,307.6,237,307.2z"/>
		<path class="st202" d="M237,307.2c0,0.9-0.3,1.6-1.1,2.1c-0.9-0.8-0.9-1.9-0.9-3C236.3,305,236.5,306.5,237,307.2z"/>
		<path class="st208" d="M528,302.2c0,2.5,0.1,5,0.1,7.4c0,1.3-0.4,2.3-1.8,2.5c-1.4,0.2-2.2-0.5-2.4-1.8c0.1-2.7,0.1-5.4,0.2-8.1
			C525.4,303.2,526.7,303.1,528,302.2z"/>
		<path class="st209" d="M667,309.2c2-3.1,0.3-6.7,1.1-9.9c0.3,0,0.7,0,1,0c0,3.6,0,7.2,0,12.1c1.1-3.9,2.5-6,5.8-5.3
			c-2.4,1.3-4,3.1-4.1,6C668.5,312.4,667,311.8,667,309.2z"/>
		<path class="st210" d="M722,309.3c0-0.9-0.1-1.7-0.9-2.2c-0.1-0.2-0.2-0.5-0.3-0.7c0-0.9,0.5-1.5,1.2-2.1c0.9,0.1,1.9,0.1,2.8,0.2
			c2.1,1.9,3.1,4,1.2,6.7c-0.7,0.4-1.3,0.7-2,1.1C720.8,312.9,721.2,311.3,722,309.3z"/>
		<path class="st211" d="M722,304.3c0,0.9-0.3,1.6-1.2,2.1c-1.5-0.8-3.1-1.6-4.6-2.3c-0.3-2.3-0.4-4.5,2.8-4.8
			c0.4-0.4,0.8-0.4,1.2-0.1c0.8,1.3-0.4,2.9,0.7,4.1C721.3,303.6,721.6,303.9,722,304.3z"/>
		<path class="st106" d="M721,303.2c-1.3-1.1-0.8-2.6-1-4c1.5-1.1,3.4,0.1,4.8-0.9l0.2-0.1c1.3,2.2,0.2,3-1.8,2.5
			C720.7,300.2,721.2,302,721,303.2z"/>
		<path class="st79" d="M19,33.2c-1.2,1.7-4.3,0.4-5,3C13.2,31.1,17.3,34.2,19,33.2z"/>
		<path class="st79" d="M14,36.2c2.3,0,4.7,0,7,0c0,0.3,0,0.7,0,1c-2.3,0-4.7,0-7,0C14,36.9,14,36.5,14,36.2z"/>
		<path class="st202" d="M241,306.2c-1.5-1.8,1-4.3-1-6.1c1.4-1.4,2.5-1.6,2.5,0.8c0,1.1-0.4,2.1-0.6,3.2
			C241.6,304.9,241.3,305.5,241,306.2z"/>
		<path class="st212" d="M722,309.3c-0.1,1.5,0.1,2.8,2,3c-3.6,1.8-6.6,1.8-7.8-2.8C718.1,309.3,720.1,309.3,722,309.3z"/>
		<path class="st213" d="M26,232.2c0.4-3-1-6.2,1-9c0.3,0.3,0.7,0.7,1,1c1.9,2.6,2,5.3,0,8c0,0.3,0,0.7,0,1
			C27.3,232.9,26.7,232.5,26,232.2z"/>
		<path class="st214" d="M724.8,298.3c-1.4,1.6-3.2,0.7-4.8,0.9c-0.3,0-0.7,0-1,0c0.3-0.3,0.7-0.7,1-1
			C721.6,298.2,723.2,298.3,724.8,298.3z"/>
		<path class="st215" d="M17,27.3c-0.3,0.6-0.6,1.3-1,1.9h-0.5H15c-1-1.3-0.1-2.7,0-4c0.3-0.3,0.6-0.3,0.9,0
			C16.3,25.9,16.6,26.6,17,27.3z"/>
		<path class="st216" d="M375.1,300.4c0.6,0.3,1.1,0.6,1.7,0.9c0.1,1.3-0.6,1.9-1.8,1.9C375.1,302.2,375.1,301.3,375.1,300.4z"/>
		<path class="st217" d="M438,260.2c-3.1,0-6.3,0-9.4,0c-9.9,0.1-8.4-1.3-8.6,8.8c-0.1,2.7,1,5.6-0.9,8.2c-1.4-5.9,0.4-12-0.9-17.9
			c4.2-3,17.3-3,20.9-0.1C439.4,260.2,438.9,260.4,438,260.2z"/>
		<path class="st218" d="M438,260.2c0.3-0.3,0.7-0.7,1-1c2.1,5.9,0.5,11.9,0.9,17.8c-2.2-0.1-1.3-1.8-1.4-2.8
			c-0.4-4.3,0.5-8.7-0.5-13C438,260.9,438,260.5,438,260.2z"/>
		<path class="st219" d="M418.1,259.3c2.1,5.9,0.4,11.9,0.9,17.9C416.9,271.3,418.5,265.3,418.1,259.3z"/>
		<path class="st217" d="M438,261.2c1.9,3.1,0.5,6.5,1,9.7c0.3,2.1-0.8,4.3,0.9,6.2c0,0.4,0.1,0.8,0.1,1.2l0,0c-2.3-0.4-2-2.2-2-3.8
			C438,270,438,265.6,438,261.2z"/>
		<path class="st220" d="M713,243.2c0,10.9,0,21.9,0,32.8c-2.6-10.9-2.3-21.8-0.9-32.8C712.4,243.2,712.7,243.2,713,243.2z"/>
		<path class="st221" d="M372,224.2c0,15.1,0,30.2,0,45.3c0,1.8,0.2,3.6,0.4,5.4c0.1,1.1,1,2.6-0.7,2.8c-2.1,0.3-1.7-1.6-1.7-2.8
			c-0.1-2,0-4,0-6c0-15.3,0-30.6,0.1-45.8C371.1,222.7,371.5,223.5,372,224.2z"/>
		<path class="st222" d="M388,222.3c1.7,0.7,2,2,2,3.6c0,16.8,0,33.6-0.1,50.4c0,0.4-0.4,0.8-1.2,2.5c-0.3-4-0.7-6.7-0.7-9.5
			c0.3-14.8-0.8-29.6,0.6-44.3c0.1-0.6-0.4-1.2-0.6-1.9c-0.4-0.2-0.5-0.4-0.4-0.6C387.7,222.4,387.9,222.3,388,222.3z"/>
		<path class="st223" d="M388,222.3c0,0.3,0,0.6,0,0.9c-5.2,2-10.7,0.2-16,1c-0.6-0.3-1.3-0.7-1.9-1C376,221.2,382,222.6,388,222.3z
			"/>
		<path class="st123" d="M565.1,278.9c2.6-1.5,1.9-4,1.9-6.2c0-37,0-73.9,0-110.9c0-6.6,0-6.4,6.4-6.6c3.9-0.1,7.9,1.2,11.7-1
			c2.2,1.1,1.9,3.2,1.9,5.2c0,37.9,0,75.8,0,113.6c0,5.4-1.8,7.2-7.2,7.1C574.9,280,569.8,281.1,565.1,278.9z"/>
		<path class="st224" d="M584.9,153.3c-6.3,0-12.7-0.1-19-0.1C572.3,151.8,578.6,151.5,584.9,153.3z"/>
		<path class="st225" d="M565.3,275.8c0-39.8,0-79.6,0-119.5c0.2,0,0.3,0,0.5,0c0,39.9,0,79.7,0,119.6
			C565.6,275.9,565.4,275.9,565.3,275.8z"/>
		<path class="st226" d="M273,278.2c-2.5-1.2-2-3.6-2-5.7c0-26.4,0-52.8,0-79.2c0.7-1.5,1.9-2.5,3.4-2.6c5.3-0.6,10.6-0.5,15.9-0.1
			c1.3,0.1,2.5,1,2.8,2.4l-0.3,0.4c-0.7,2.4-0.9,4.9-0.9,7.4c0,22.7,0,45.3,0,68c0,2.8,0.2,5.6,1,8.4c-0.4,0.8-1.1,1-2,1.1
			c-2.4-0.2-2-2.3-2.3-3.7c-0.5-3.1-0.5-6.3-0.5-9.5c0-20.9,0-41.9,0-62.8c0-6.1,0-6.2-4.9-6.3c-8.1-0.1-8.6,0.1-8.6,6.5
			c-0.1,21.9,0,43.9,0,65.8c0,2.3,0.4,4.6,0.8,6.9C275.8,276.8,276.2,279.1,273,278.2z"/>
		<path class="st227" d="M322,277.2c-3.4-0.6-1.8-3.3-1.8-4.9c-0.1-29.6-0.1-59.2-0.1-88.9c0-4.5,0-9,0-13.5c0-1.6-0.5-3.4,0.9-4.7
			c1.9,0,1.5,1.5,1.5,2.5c0,36,0.1,72.1,0,108.1C322.5,276.3,322.2,276.7,322,277.2z"/>
		<path class="st228" d="M322,277.2c0-35.4,0-70.9,0-106.3c0-1.9,0.7-4-1-5.7c0.6-1.3,1.7-2,3.2-2c5,0,10.1,0,15.1,0.6
			c-4,2-8.4,1.8-12.3,1.1c-4.8-1-4,1.7-4,4.4c0,32.6,0,65.2-0.1,97.7C322.9,270.4,324,274,322,277.2z"/>
		<path class="st107" d="M145.9,278.2c-6,3.6-12.5,2.1-18.7,1.2c-2.2-0.3-3.2-2.9-3.2-5.6c0.1-35.7,0-71.5,0-107.2c0-4,2-6.6,6-6.2
			c5.3,0.4,11-2,15.9,1.9c-0.7,1.4-0.4,2.9-0.4,4.4c0,35.7,0,71.4,0,107.1C145.5,275.3,145.2,276.8,145.9,278.2z"/>
		<path class="st229" d="M145.9,278.2c-2.4-0.4-1.9-2.4-1.9-3.9c0-36,0-72.1,0-108.1c0-1.6-0.5-3.5,1.9-3.9c0.1,0.3,0.1,0.6,0.2,0.9
			c0,0.3,0,0.6-0.1,1c-0.1,37.4-0.1,74.9,0,112.3c0,0.3,0,0.6,0.1,1C146.1,277.6,146,277.9,145.9,278.2z"/>
		<path class="st229" d="M146.9,163.3c0,37.9,0,75.9,0,113.8c-0.3,0.1-0.6,0.1-0.8,0.2l-0.2-0.2c-0.7-1.2-0.4-2.6-0.4-3.9
			c0-35.3,0-70.6,0-106c0-1.3-0.3-2.7,0.4-3.9l0.2-0.2C146.4,163.2,146.6,163.2,146.9,163.3z"/>
		<path class="st230" d="M195.9,135.3c0,47.3-0.1,94.6-0.1,141.9c-1.8,0.2-2-0.5-2-2.3c0.1-44.4,0.1-88.9,0.2-133.3
			C194,139.3,193.2,136.7,195.9,135.3z"/>
		<path class="st231" d="M175,134.2c1.5,1.3,1,3.1,1,4.7c0,44.8,0,89.6-0.1,134.5c0,1.3,1.7,4.1-1.9,3.8c0-45.4,0-90.8,0-136.2
			C174,138.7,173.5,136.3,175,134.2z"/>
		<path class="st232" d="M175,134.2c0,46.1,0,92.2,0,138.3c0,1.6,0.5,3.4-1,4.7l0,0c-0.9-1.4-0.5-2.9-0.5-4.4c0-44.7,0-89.5,0-134.2
			c0-1.5-0.4-3,0.5-4.4v-0.1C174.3,134.2,174.6,134.2,175,134.2z"/>
		<path class="st231" d="M174,134.2c0,47.7,0,95.3,0,143c-0.3,0-0.6,0-0.9,0c0-46.6-0.1-93.2-0.1-139.8
			C173,136.2,172.9,135,174,134.2z"/>
		<path class="st233" d="M223.2,277.9c-0.1-2.2-0.2-4.3-0.2-6.5c0-56.7,0-113.4,0-170.1c0-2.3,0.1-4.7,0.2-7c5.3-0.1,10.7,0,16-0.3
			c3.2-0.1,4,1.3,3.9,4.2c-0.2,3.3,0,6.7,0,10c0,54.5,0,108.9,0,163.4c0,1.8,0,3.6,0,6c-2.9-1.9-2-4.2-2-6.1
			c-0.1-51.6,0-103.3,0-154.9c0-5.5-0.1-11,0-16.5c0.1-2.9-0.8-4.1-4-4.2C225,95.5,225,95.4,225,107.4c0,55,0,109.9-0.1,164.9
			C224.9,274.3,226.5,277,223.2,277.9z"/>
		<path class="st6" d="M95.9,253c-5.2,0-10.3,0-15.5,0c0-0.1,0-0.3,0-0.4c5.2,0,10.3,0,15.5,0C95.9,252.7,95.9,252.8,95.9,253z"/>
		<path class="st234" d="M616,172.2c0.8,2.6,1,5.2,1,7.8c0,30.6,0,61.2,0,91.8c0,1.2,0,2.3,0,3.5c-0.1,1.1,0.1,2.6-1.6,2.4
			c-1.3-0.1-1.3-1.3-1.3-2.3c0-1.3,0-2.7,0-4c0-33.8,0-67.5,0-101.3c6.3-2.3,12.8-0.6,19.1-0.9c1.4-0.1,1.7,1.3,2.2,2.4
			c0.7,1.8,0.6,3.6,0.6,5.4c0,31.8,0,63.6,0,95.4c0,1.6,0.5,3.4-0.8,4.8c-0.4,0-0.7,0-1.1,0c-0.7-0.8-0.5-1.8-0.5-2.8
			c0.1-33.5,0-67,0-100.4c0-1.2-0.1-2.6-1.6-2.6C626.6,171.5,621.2,170.1,616,172.2z"/>
		<path class="st235" d="M487,117.1c0.4,1.4,0.9,2.9-1.3,2.8c-4.4-0.2-8.9,1.1-13.3-0.1c-2.7-0.7-3.3,0.8-3.3,2.9
			c-0.1,1.3,0,2.7,0,4c0,47.8,0,95.7,0,143.5c0,2.4,0,4.8,0,7.5c-2.5-0.8-2-2.7-2-4.2c0-49.8,0-99.7-0.1-149.5c0-4.5,1.7-6.2,6.2-6
			C477.8,118.3,482.6,118.8,487,117.1C487.1,117.1,487,117.1,487,117.1z"/>
		<path class="st107" d="M516,89.2c0.4-0.3,0.7-0.7,1.1-1c6-0.4,12,1.1,17.9-0.9c0.4,0,0.8-0.1,1.2-0.1c0.6,0.7,1.3,1.4,1.9,2.1
			h-0.3c-0.3,0.5-0.6,1.1-0.7,1.8c-0.6,2.6-0.6,5.3-0.6,7.9c0,55.9,0,111.8,0,167.6c0,3.8,0.8,7.6,0.4,11.4c-2.4,3.5-6,2.1-9.2,2.1
			c-12.7,0.1-12.7,0-12.7-12.7c0-57.3,0-114.6,0-172C515.1,93.3,514.3,91.1,516,89.2z"/>
		<path class="st236" d="M536.8,277.9c-1.5-3.2-1.8-6.6-1.8-10.1c0-56.9,0-113.7,0-170.6c0-2.8-0.1-5.7,1.9-8c1,1.4,0.5,2.9,0.5,4.4
			c0,59.7,0,119.5,0,179.2c0,1.5,0.4,3-0.4,4.4C537,277.5,536.9,277.7,536.8,277.9z"/>
		<path class="st237" d="M537,277.2c0-62.7-0.1-125.3-0.1-188c0.3,0,0.6,0,0.8-0.1c0.1,0.8,0.2,1.7,0.2,2.5
			c0,61.8,0,123.6-0.1,185.5C537.6,277.2,537.3,277.2,537,277.2z"/>
		<path class="st222" d="M534.9,87.2c-5.8,3.4-11.9,2.1-17.9,0.9C522.9,86.1,529,87.7,534.9,87.2z"/>
		<path class="st107" d="M662,205.2c0.4-0.9,1-1.7,2-2c4.4,1,9,0.5,13.4,0.5c4,0.1,5.6,1.7,5.6,5.8c-0.1,21.5,0,42.9-0.1,64.4
			c0,1.5,0.1,3-1,4.3c-6.4,1.1-12.9,2.8-19-1c-0.6-3-0.5-6-0.5-8.9c0-19.1,0-38.3,0-57.4c0-1.8,0.4-3.7-0.4-5.4V205.2z"/>
		<path class="st238" d="M682,278.2c0-22.2-0.2-44.4,0.1-66.7c0.1-4.9-1-7.1-6.3-6.4c-2.8,0.4-5.6,0.1-8.4,0.1c-1.5,0-3.1,0.1-3.4-2
			l0,0c6-0.8,12-0.8,18,0c0.4,0.6,0.7,1.2,1.1,1.9c0.9,1.7,0.4,3.6,0.4,5.4c0,20.4,0,40.8,0,61.2c0,1.8-0.4,3.7,0.4,5.4
			C683.6,278,682.8,278.1,682,278.2z"/>
		<path class="st239" d="M662.1,205.4c1.5,1.5,0.9,3.5,0.9,5.2c0,19.6,0.1,39.3-0.1,58.9c0,2.6,1.3,5.1,0.1,7.7c-1.2-1-1-2.4-1-3.7
			C662.1,250.8,662.1,228.1,662.1,205.4z"/>
		<path class="st240" d="M683.9,277.1c-1.5-1.3-0.9-3.1-0.9-4.7c0-22.4,0-44.9,0-67.3c0.3,0,0.6,0.1,0.9,0.2
			C683.9,229.2,683.9,253.1,683.9,277.1z"/>
		<path class="st107" d="M682,203.2c-6,0-12,0-18,0C670,201.7,676,201.7,682,203.2z"/>
		<path class="st241" d="M634,172.2c0,35,0,70,0.1,105c-1.6,0.9-1.8-0.4-1.7-1.3c1.5-15.2,0.4-30.5,0.6-45.8c0.2-19.3,0-38.6,0-57.9
			C633.3,171.9,633.6,171.9,634,172.2z"/>
		<path class="st242" d="M634,172.2c-0.3,0-0.7,0-1,0s-0.6,0-1,0c-5.3-0.8-10.7-0.8-16,0l0,0c-0.7-0.7-0.9-1.7,0.3-1.8
			c5.6-0.3,11.2-0.6,16.7,0.2C633.4,170.7,633.7,171.6,634,172.2z"/>
		<path class="st234" d="M616,172.2c5.3-1.6,10.7-1.6,16,0C626.7,172.2,621.3,172.2,616,172.2z"/>
		<path class="st132" d="M96,278.2c-5.7,1.7-11.3,1.6-17,0c-1.8-1.7-1.6-3.8-1.5-6c0.1-3.3,0.1-6.6,0-9.9c0-2.5,1.1-3.7,3.6-3.6
			c3.5,0.1,7,0.1,10.4,0c3.1-0.1,4.1,1.3,4,4.2C95.5,268,95.2,273.1,96,278.2z"/>
		<path class="st243" d="M96,278.2c-2.1-4.6-0.7-9.4-0.9-14.1c-0.1-3-0.5-4.5-4.2-4c-3.9,0.5-7.9,0.1-11.8,0c0,3.9-0.1,7.8-0.1,11.7
			c0,2.1,0,4.3,0,6.4c-1,0-1.9-0.1-2.9-0.1c0-5,0-9.9-0.1-14.8c-0.1-4.1,1.5-6.3,5.8-6c5,0.4,10.2-1,15.2,1
			c-1.5,5.3-1.1,10.8-0.6,16.2C96.4,275.8,96.7,277,96,278.2z"/>
		<path class="st244" d="M432.8,306.3c0.1,1.8,0.7,3.7-2.3,4.6c0.7-3-0.1-5-3.4-4.9C429.1,303.4,430.9,306.3,432.8,306.3z"/>
		<path class="st245" d="M426.1,302.5c-0.2,0.3-0.4,1-0.7,1c-0.8,0-1.1-0.7-1-1.4c0.1-0.4,0.5-1,0.8-1.1
			C426.2,300.9,425.9,301.8,426.1,302.5z"/>
		<path class="st54" d="M28,74.2c0.3,0,0.7,0,1,0c0,2.3-0.1,4.7-0.1,7c-1.3-1.1-0.8-2.7-1-4C28,76.2,28,75.2,28,74.2z"/>
		<path class="st94" d="M41,34.2c-2.4-7.2-1.4-9.5,4-10c0.3,0.3,0.7,0.7,1,1C49.1,30.2,47.1,33.7,41,34.2z"/>
		<path class="st246" d="M329.9,304.3c-1.7,0.8,5.9,0.7,0.2,2c-0.9,0.2-0.4,1.1-0.2,1.7c-1.1,0.8-1.1,3.3-3,2.7
			c-1.8-0.6-0.2-2.2-0.2-3.4c0-1.1-1.1-2.2,0.1-3.2c0.6-0.4,0.4-1.1,0.7-1.7c0.3-0.4,0.6-0.5,1.1-0.6c0.2,0.1,0.4,0.2,0.6,0.3
			C329,303,329.2,303.8,329.9,304.3z"/>
		<path class="st149" d="M326.9,300.1c1.6-3.5,4.6-1.1,7.6-2.1c-1.6,2.5-4.5,2.1-5.3,4.2l-0.3,0.1c-0.4-0.7-1.2-1.1-1.7-1.7
			C327.1,300.4,327,300.2,326.9,300.1z"/>
		<path class="st247" d="M328,302.2c0,0.8-0.2,1.6-1.1,1.9c-0.4-1.4-1.3-2.7,0.1-4.1l0.1,0.2C327.7,300.7,328,301.4,328,302.2z"/>
		<path class="st248" d="M28.9,224.2c1-1.5,2-0.4,3.1,0c0.5,1.3,1.3,2.5,1,4c0,1,0,2,0,3c-0.4,0.4-0.8,0.6-1.4,0.7
			c-1.4-0.1-2.6-0.6-3-2.1C28.7,227.8,28.1,226,28.9,224.2z"/>
		<path class="st249" d="M38,224.2c1.6,2.3,1.6,4.7,0,7C33.4,228.9,34.8,226.5,38,224.2z"/>
		<path class="st93" d="M28.9,224.2c0,2,0.1,4,0.1,6c0.5,0.5,0.6,1,0.4,1.6c-0.1,0.1-0.3,0.3-0.4,0.4c-0.3,0-0.6,0-0.9,0
			c0-2.7,0-5.3,0-8C28.3,224.2,28.6,224.2,28.9,224.2z"/>
		<path class="st93" d="M32,231.2c0.3,0,0.6-0.1,0.9-0.1c-0.6,2.9-2.2,2.4-4,1.1l0.1-0.1C29.8,231,31.1,231.9,32,231.2z"/>
		<path class="st250" d="M33,228.2c-0.7-1.2-1.1-2.5-1-4C33.2,225.3,34.6,226.4,33,228.2z"/>
		<path class="st251" d="M42,232.3c-0.4-0.4-0.7-0.7-1.1-1.1c0-0.3,0-0.5,0.1-0.8c0.4-2.5-1-5.6,2.8-6.7c3.5,2.4,3,4.9,0.3,7.6
			C43.4,231.6,42.7,231.9,42,232.3z"/>
		<path class="st101" d="M44.1,231.2c0.7-2.5,2.6-5.2-1.1-7c-0.5,0.5-1,0.6-1.6,0.4c-0.1-0.2-0.3-0.3-0.4-0.5c1.4-1.6,2.9-3.1,5-0.9
			C46.2,226.1,49.4,229.7,44.1,231.2z"/>
		<path class="st252" d="M40.9,231.2c-1.4-2.4-1.4-4.7,0.1-7l0.1,0.2c0.7,2.3,0.6,4.6,0.1,6.9L40.9,231.2z"/>
		<path class="st253" d="M38,132.2c-0.5-0.4-0.9-0.9-1.5-1.2c-1.9-1.4-0.5-2.9-0.1-4.3c0.1-0.4,1.1-1,1.5-0.9c1.8,0.8,0.9,2.5,1,3.8
			C39.1,130.6,38.9,131.5,38,132.2L38,132.2z"/>
		<path class="st51" d="M42,124.2c-1.9,3.2-1.4,6.2,1,9C39.1,131,38.7,127.3,42,124.2z"/>
		<path class="st63" d="M33,132.2c0-2.6-0.1-5.3-0.1-7.9C34.7,126.9,34.5,129.5,33,132.2z"/>
		<path class="st254" d="M481.2,299.4c1.4-0.4,2.5,0.1,3.6,1c0,1.5-0.6,2.8-2.2,2.5C480.4,302.6,481.1,300.8,481.2,299.4z"/>
		<path class="st255" d="M483.8,306.7c1.5,1.6,1,2.6,1.1,4C483.4,309.4,484.4,308.3,483.8,306.7z"/>
		<path class="st256" d="M29,25.2c0.7,0,1.3,0.1,2,0.1c0.2,0.4,0.1,0.8,0.2,1.2c0.3-0.3,0.3-0.9,0.7-1.2c0.3-0.1,0.6-0.1,1-0.2
			c1,2.3,0.7,4.6,0.1,7c-1.3,1.4-2.7,1.5-4.1,0C28.3,29.9,28.2,27.6,29,25.2L29,25.2z"/>
		<path class="st257" d="M38.6,26c0.6,1.8,0.6,3.6,0,5.4c-2.2,0.2-3.2-1.3-3.2-3C35.3,26.5,36.9,26,38.6,26z"/>
		<path class="st248" d="M32,25.4c-0.1,1.7,0.5,3.5-0.9,5.7c-1.7-2.2-1-4,0-5.8C31.3,25.3,31.6,25.3,32,25.4z"/>
		<path class="st258" d="M29,25.2c0,2.3,0,4.7-0.1,7c-0.3,0-0.6,0-0.9-0.1C28.3,29.8,27.1,27.3,29,25.2z"/>
		<path class="st259" d="M33,32.2c0-2.3-0.1-4.6-0.1-7C34.7,27.5,34.5,29.8,33,32.2z"/>
		<path class="st260" d="M15.9,25.2h-0.5h-0.5c-1.1-0.9-0.8-1.7,0.1-2.4c0.3-0.2,0.9,0,1.3,0.1C16.3,23.7,16.1,24.4,15.9,25.2z"/>
		<path class="st107" d="M273,278.2c1.4-0.2,2.5-1.1,1.5-2.3c-2.1-2.3-1.4-5-1.5-7.6c-0.1-22.8,0.1-45.6-0.1-68.5
			c-0.1-4.7,1.4-6.2,5.9-5.8c3.7,0.4,7.5,0.1,11.3,0.1c0,3.6-0.1,7.2-0.1,10.9c0,23.6,0.1,47.3,0.1,70.9c0,0.9,0.1,1.6,0.8,2.2
			C285,279.8,279,279.8,273,278.2z"/>
		<path class="st240" d="M293,277.2c-1.6-2.4-1.9-5.2-1.9-8c0-22.9,0-45.8,0-68.7c0-2.5,0.1-5,1.8-7
			C292.9,221.3,292.9,249.2,293,277.2z"/>
		<path class="st109" d="M127.5,173c0,6.5,0,13,0,19.4c-0.3,0-0.7,0-1,0c0-6.5,0-13,0-19.4C126.8,173,127.2,173,127.5,173z"/>
		<path class="st109" d="M126.5,237.4c0-5.8,0-11.6,0-17.5c0.3,0,0.7,0,1,0c0,5.8,0,11.6,0,17.5
			C127.2,237.4,126.9,237.4,126.5,237.4z"/>
		<path class="st109" d="M126.3,272.4c0-4.8,0-9.6,0-14.4c0.3,0,0.7,0,1,0c0,4.8,0,9.6,0,14.5C127,272.4,126.7,272.4,126.3,272.4z"
			/>
		<path class="st109" d="M127,203c1.2,4.1,1.4,8.3,0.1,12.4C125.5,211.3,126,207.2,127,203z"/>
		<path class="st221" d="M127,247.5c-1.2-2.9-1.2-4.8,0-7.6C128.3,242.8,128.3,244.7,127,247.5z"/>
		<path class="st261" d="M145.9,163.3c0,37.9,0,75.9,0,113.8c-1.5-1.3-0.9-3.1-0.9-4.7c0-35,0-69.9,0-104.9
			C145,166,144.5,164.4,145.9,163.3z"/>
		<path class="st262" d="M45.1,28.9c-0.3,1.4,0.4,3.5-1.7,3.5c-1.9-0.1-2.4-2-2.3-3.8c0.1-1.6,0.4-3.2,2.3-3.2
			C45.6,25.6,44.8,27.6,45.1,28.9z"/>
		<path class="st263" d="M328,302.2c-0.7-0.4-0.9-1.2-1-2c2.6-1.2,1.9,0.7,1.9,2C328.6,302.2,328.3,302.2,328,302.2z"/>
		<path class="st250" d="M32,231.2c-0.8,1.1-1.9,0.9-3,0.9c0-0.7,0-1.3,0-2C30,230.5,31,230.9,32,231.2z"/>
		<path class="st264" d="M41.1,231.2c0-2.3,0-4.6-0.1-6.9c0.6,0,1.3-0.1,1.9-0.1C41.3,226.2,42.8,229.1,41.1,231.2z"/>
	</g>
	<path class="st265" d="M220,94.2c0-22.6,0-45.3,0-67.9c0-5.8,1.2-7,7-7c3.8-0.1,7.7,0.3,11.5-0.1c4.8-0.4,6.7,2.2,7.3,6.2
		c0.3,1.9,0.3,4,0.2,6c-0.6,11.1-0.2,22.3-0.5,33.4c-0.2,7.5-0.2,15.1,0.5,22.6c0.2,2,0.1,4-1,5.8c-1.7,0.7-2.7-0.6-3.9-1.3
		c-5.6-2.1-11.3-1.8-17-0.3c-0.2,0.4-0.5,0.7-0.7,1.1C222.5,93.7,221.6,94.9,220,94.2z"/>
	<path class="st265" d="M378.8,281.2c-14.4,0-14.6-0.4-15-14.8c-0.2-5.8,2.3-11,2.3-16.7c0-9.3,1.4-18.6,0.1-28.1
		c-0.9-6.8-0.3-13.9,0.1-20.9c0.3-4.3,1.4-8.7,0-13.2c-1.3-3.9,0.2-7.9,0.6-11.8c0.7-6.2-1.1-12.2-1-18.4c0.2-7.6,1.5-15.2,0.8-22.6
		c-1.1-10.7,0.3-21.3-0.3-32c-0.4-5.6-0.7-11.7,0.2-17.6c0.9-5.7-0.6-11.7-0.6-17.6c-0.1-16.5-0.1-33,0-49.5c0-6.3,1.6-7.9,8-7.9
		c3.3,0,6.7,0,10,0c6,0.1,8.8,3,7.8,8.8c-0.9,5-0.1,9.7,0,14.6c0.2,6.2-0.8,12.4-0.4,18.6c1,14.1-0.9,28.3,0.4,42.4
		c0.6,7.3-0.4,14.7-0.5,22.1c0,6,0.1,12,0.6,17.9c0.5,5.5-1,10.7-0.6,16.3c1.1,14.3,0.2,28.6,0.2,42.9c0.1,11.8,0.6,23.6-0.1,35.4
		c-0.7,12.5,1.1,25.2,1.4,37.9C393.2,281.2,393,281.2,378.8,281.2z"/>
	<path class="st265" d="M333.8,281.2c-14.4,0-14.6-0.4-15-14.8c-0.2-5.8,2.3-11,2.3-16.7c0-9.3,1.4-18.6,0.1-28.1
		c-0.9-6.8-0.3-13.9,0.1-20.9c0.3-4.3,1.4-8.7,0-13.2c-1.3-3.9,0.2-7.9,0.6-11.8c0.7-6.2-1.1-12.2-1-18.4c0.2-7.6,1.5-15.2,0.8-22.6
		c-1.1-10.7,0.3-21.3-0.3-32c-0.4-5.6-0.7-11.7,0.2-17.6c0.9-5.7-0.6-11.7-0.6-17.6c-0.1-16.5-0.1-33,0-49.5c0-6.3,1.6-7.9,8-7.9
		c3.3,0,6.7,0,10,0c6,0.1,8.8,3,7.8,8.8c-0.9,5-0.1,9.7,0,14.6c0.2,6.2-0.8,12.4-0.4,18.6c1,14.1-0.9,28.3,0.4,42.4
		c0.6,7.3-0.4,14.7-0.5,22.1c0,6,0.1,12,0.6,17.9c0.5,5.5-1,10.7-0.6,16.3c1.1,14.3,0.2,28.6,0.2,42.9c0.1,11.8,0.6,23.6-0.1,35.4
		c-0.7,12.5,1.1,25.2,1.4,37.9C348.2,281.2,348,281.2,333.8,281.2z"/>
</g>
<g id="Layer_2_1_">
	<polygon class="st3" points="710,13.6 734.2,13.6 734.2,279.5 711,279.5 	"/>
	<polygon class="st3" points="661,12.6 685.2,12.6 685.2,278.5 662,278.5 	"/>
	<polygon class="st3" points="612,13.6 636.2,13.6 636.2,279.5 613,279.5 	"/>
	<polygon class="st3" points="562,13.6 586.2,13.6 586.2,279.5 563,279.5 	"/>
	<polygon class="st3" points="515,12.6 539.2,12.6 539.2,278.5 516,278.5 	"/>
	<polygon class="st3" points="465,13.6 489.2,13.6 489.2,279.5 466,279.5 	"/>
	<polygon class="st3" points="416,13.6 440.2,13.6 440.2,279.5 417,279.5 	"/>
	<polygon class="st3" points="366,13.6 390.2,13.6 390.2,279.5 367,279.5 	"/>
	<polygon class="st3" points="320,12.6 344.2,12.6 344.2,278.5 321,278.5 	"/>
	<polygon class="st3" points="270,13.6 294.2,13.6 294.2,279.5 271,279.5 	"/>
	<polygon class="st3" points="221,13.6 245.2,13.6 245.2,279.5 222,279.5 	"/>
	<polygon class="st3" points="172,12.6 196.2,12.6 196.2,278.5 173,278.5 	"/>
	<polygon class="st3" points="123,13.6 147.2,13.6 147.2,279.5 124,279.5 	"/>
	<polygon class="st3" points="74,13.6 98.2,13.6 98.2,279.5 75,279.5 	"/>
	<path class="st107" d="M714.2,242.2H731c1.8,0,3.2,1.4,3.2,3.2v34.1H711v-34.1C711,243.6,712.4,242.2,714.2,242.2z"/>
	<path class="st107" d="M664.9,204.2h17.3c1.6,0,2.9,1.3,2.9,2.9v71.1H662v-71.1C662,205.5,663.3,204.2,664.9,204.2z"/>
	<path class="st107" d="M615.1,168.2h18c1.7,0,3.1,1.4,3.1,3.1v108.3H613l-1-108.3C612,169.6,613.4,168.2,615.1,168.2z"/>
	<path class="st107" d="M566.1,153.2H583c1.7,0,3.1,1.4,3.1,3.1v123.2H563V156.3C563,154.6,564.4,153.2,566.1,153.2z"/>
	<path class="st107" d="M518.4,86.2h17.4c1.9,0,3.4,1.5,3.4,3.4v188.6H516l-1-188.6C515,87.7,516.5,86.2,518.4,86.2z"/>
	<path class="st107" d="M468.7,116.2h16.7c2,0,3.7,1.7,3.7,3.7v159.3H466l-1-159.3C465,117.9,466.7,116.2,468.7,116.2z"/>
	<path class="st107" d="M421,257.2h15.1c2.2,0,4,1.8,4,4v18.3H417v-18.3C417,259,418.8,257.2,421,257.2z"/>
	<path class="st107" d="M370,67.2h16.1c2.2,0,4,1.8,4,4v208.3H367l-1-208.3C366,69,367.8,67.2,370,67.2z"/>
	<path class="st107" d="M323.5,164.2h17.1c1.9,0,3.5,1.6,3.5,3.5v110.5H321l-1-110.5C320,165.8,321.6,164.2,323.5,164.2z"/>
	<path class="st107" d="M274.9,190.2h15.4c2.2,0,3.9,1.7,3.9,3.9v85.4H271v-85.4C271,191.9,272.7,190.2,274.9,190.2z"/>
	<path class="st107" d="M224.8,95.2h16.5c2.1,0,3.8,1.7,3.8,3.8v180.5H222L221,99C221,96.9,222.7,95.2,224.8,95.2z"/>
	<path class="st107" d="M176.2,131.2H192c2.3,0,4.2,1.9,4.2,4.2v142.8H173l-1-142.8C172,133.1,173.9,131.2,176.2,131.2z"/>
	<path class="st107" d="M126.6,162.2h17c2,0,3.6,1.6,3.6,3.6v113.8H124l-1-113.7C123,163.8,124.6,162.2,126.6,162.2z"/>
	<path class="st107" d="M78.2,258.2h17c1.6,0,2.9,1.3,2.9,2.9v18.4H75v-18.1C75,259.6,76.4,258.2,78.2,258.2z"/>
	<text transform="matrix(1 0 0 1 13.1194 36.6042)" class="st266 st267">500</text>
	<text transform="matrix(1 0 0 1 11.1194 85.6042)" class="st266 st267">400</text>
	<text transform="matrix(1 0 0 1 13.1194 136.6042)" class="st266 st267">300</text>
	<text transform="matrix(1 0 0 1 13.1194 187.6042)" class="st266 st267">200</text>
	<text transform="matrix(1 0 0 1 13.1194 235.6042)" class="st266 st267">100</text>
	<text transform="matrix(1 0 0 1 36.1194 286.6042)" class="st266 st267">0</text>
	<text transform="matrix(1 0 0 1 92.2305 313.7331)" class="st266 st267 st268"> </text>
	<text transform="matrix(1 0 0 1 145.9305 313.7331)" class="st266 st267"> </text>
	<text transform="matrix(1 0 0 1 244.7305 313.7331)" class="st266 st267 st269"> </text>
	<text transform="matrix(1 0 0 1 287.6305 313.7331)" class="st266 st267 st270"> </text>
	<text transform="matrix(1 0 0 1 338.6305 313.7331)" class="st266 st267 st271"> </text>
	<text transform="matrix(1 0 0 1 436.6305 313.7331)" class="st266 st267"> </text>
	<text transform="matrix(1 0 0 1 534.5305 313.7331)" class="st266 st267 st272"> </text>
	<text transform="matrix(1 0 0 1 584.0305 313.7331)" class="st266 st267 st273"> </text>
	<text transform="matrix(1 0 0 1 584.4305 313.7331)" class="st266 st267 st274"> </text>
	<text transform="matrix(1 0 0 1 632.3305 313.7331)" class="st266 st267 st268"> </text>
	<text transform="matrix(1 0 0 1 678.3305 313.7331)" class="st266 st267 st269"> </text>
</g>
<path class="st275" d="M210,342"/>
<text transform="matrix(1 0 0 1 78.1731 310.6765)" class="st266 st276">S</text>
<text transform="matrix(1 0 0 1 125.0606 310.6765)" class="st266 st276">M</text>
<text transform="matrix(1 0 0 1 176.6116 310.6765)" class="st266 st276">T</text>
<text transform="matrix(1 0 0 1 222.2584 310.6766)" class="st266 st276">W</text>
<text transform="matrix(1 0 0 1 275.6763 310.6766)" class="st266 st276">T</text>
<text transform="matrix(1 0 0 1 324.8017 310.6766)" class="st266 st276">F</text>
<text transform="matrix(1 0 0 1 369.7264 310.6768)" class="st266 st276">S</text>
<text transform="matrix(1 0 0 1 419.7264 310.6768)" class="st266 st276">S</text>
<text transform="matrix(1 0 0 1 467.789 310.6768)" class="st266 st276">M</text>
<text transform="matrix(1 0 0 1 519.6768 310.6769)" class="st266 st276">T</text>
<text transform="matrix(1 0 0 1 563.3146 310.6772)" class="st266 st276">W</text>
<text transform="matrix(1 0 0 1 616.6771 310.6771)" class="st266 st276">T</text>
<text transform="matrix(1 0 0 1 665.8015 310.6761)" class="st266 st276">F</text>
<text transform="matrix(1 0 0 1 714.2266 310.6761)" class="st266 st276">S</text>
</svg>
